<svg xmlns:dc="http://purl.org/dc/elements/1.1/" xmlns:cc="http://creativecommons.org/ns#" xmlns:rdf="http://www.w3.org/1999/02/22-rdf-syntax-ns#" xmlns:svg="http://www.w3.org/2000/svg" xmlns="http://www.w3.org/2000/svg" xmlns:sodipodi="http://sodipodi.sourceforge.net/DTD/sodipodi-0.dtd" xmlns:inkscape="http://www.inkscape.org/namespaces/inkscape" version="1.1" x="0px" y="0px" viewBox="0 0 100 125"><g transform="translate(0,-952.36218)" ><path style="font-size:medium;font-style:normal;font-variant:normal;font-weight:normal;font-stretch:normal;text-indent:0;text-align:start;text-decoration:none;line-height:normal;letter-spacing:normal;word-spacing:normal;text-transform:none;direction:ltr;block-progression:tb;writing-mode:lr-tb;text-anchor:start;baseline-shift:baseline;opacity:1;color:#5A5353;fill:#5A5353;fill-opacity:1;stroke:none;stroke-width:2;marker:none;visibility:visible;display:inline;overflow:visible;enable-background:accumulate;font-family:Sans;-inkscape-font-specification:Sans" d="M 17.9375,7 C 17.435095,7.0315083 16.999063,7.4966091 17,8 l 0,17 -5,0 c -0.72144,0 -1,0.528595 -1,1 0,0.471405 0.471201,1 1,1 l 5,0 0,22 -5,0 c -0.758789,0 -1,0.528595 -1,1 0,0.471405 0.471201,1 1,1 l 5,0 0,22 -5,0 c -0.75879,0 -1,0.528595 -1,1 0,0.471405 0.471201,1 1,1 l 5,0 0,17 c 5.2e-5,0.523584 0.476416,0.999948 1,1 l 68,0 c 0.523584,-5.2e-5 0.999948,-0.476416 1,-1 L 87,8 C 86.999948,7.4764155 86.523584,7.0000524 86,7 L 18,7 C 17.97917,6.9993489 17.95833,6.9993489 17.9375,7 z M 19,9 l 66,0 0,82 -66,0 0,-16 6.09375,0 c 0.468337,2.272758 2.500368,4 4.90625,4 2.749579,0 5,-2.2504 5,-5 0,-2.7496 -2.250421,-5 -5,-5 -2.405882,0 -4.437913,1.727242 -4.90625,4 L 19,73 l 0,-22 6.09375,0 c 0.468337,2.272758 2.500368,4 4.90625,4 2.749579,0 5,-2.2504 5,-5 0,-2.74958 -2.250421,-5 -5,-5 -2.405882,0 -4.437913,1.727252 -4.90625,4 L 19,49 l 0,-22 6.09375,0 c 0.468337,2.272748 2.500368,4 4.90625,4 2.749579,0 5,-2.25042 5,-5 0,-2.74958 -2.250421,-5 -5,-5 -2.405882,0 -4.437913,1.727252 -4.90625,4 L 19,25 z m 11,14 c 1.668699,0 3,1.3313 3,3 0,1.6687 -1.331301,3 -3,3 -1.668699,0 -3,-1.3313 -3,-3 0,-1.6687 1.331301,-3 3,-3 z m 30,6 c -4.483639,0 -8,4.10884 -8,9 0,4.89116 3.516361,9 8,9 4.483639,0 8,-4.10884 8,-9 0,-4.89116 -3.516361,-9 -8,-9 z m 0,2 c 3.248347,0 6,3.05461 6,7 0,3.94539 -2.751653,7 -6,7 -3.248347,0 -6,-3.05461 -6,-7 0,-3.94539 2.751653,-7 6,-7 z M 30,47 c 1.668699,0 3,1.3313 3,3 0,1.6687 -1.331301,3 -3,3 -1.668699,0 -3,-1.3313 -3,-3 0,-1.6687 1.331301,-3 3,-3 z m 30,6 C 55.43384,53 51.293501,53.9001 48.21875,55.4375 45.143999,56.9749 43,59.2473 43,62 l 0,8 c 5.2e-5,0.523584 0.476416,0.999948 1,1 l 32,0 c 0.523584,-5.2e-5 0.999948,-0.476416 1,-1 l 0,-8 C 77,59.2473 74.856001,56.9749 71.78125,55.4375 68.706499,53.9001 64.566158,53 60,53 z m 0,2 c 4.297805,0 8.165773,0.86405 10.875,2.21875 C 73.584227,58.57335 75,60.3207 75,62 l 0,7 -30,0 0,-7 c 0,-1.6793 1.415772,-3.42665 4.125,-4.78125 C 51.834228,55.86405 55.702192,55 60,55 z M 30,71 c 1.668699,0 3,1.3313 3,3 0,1.6687 -1.331301,3 -3,3 -1.668699,0 -3,-1.3313 -3,-3 0,-1.6687 1.331301,-3 3,-3 z" transform="translate(0,952.36218)"/></g></svg>