<svg xmlns="http://www.w3.org/2000/svg" xmlns:xlink="http://www.w3.org/1999/xlink" version="1.1" x="0px" y="0px" viewBox="0 0 100 125" enable-background="new 0 0 100 100" xml:space="preserve"><g><g><path fill="#000000" d="M75,13H25c-5.5,0-10,4.5-10,10v3v2v30v2v13c0,5.5,4.5,10,10,10v4h10v-4h30v4h10v-4c5.5,0,10-4.5,10-10V60    v-2V28v-2v-3C85,17.5,80.5,13,75,13L75,13z M17,26v-3c0-4.411,3.589-8,8-8h50c4.411,0,8,3.589,8,8v3H17L17,26z M17,58V28h66v30H17    L17,58z M25,81c-4.411,0-8-3.589-8-8V60h66v13c0,4.411-3.589,8-8,8H25L25,81z M67,85v-2h6v2H67L67,85z M27,85v-2h6v2H27L27,85z"/></g><g><path fill="#000000" d="M28,66c1.654,0,3,1.346,3,3s-1.346,3-3,3s-3-1.346-3-3S26.346,66,28,66 M28,64c-2.762,0-5,2.238-5,5    s2.238,5,5,5s5-2.238,5-5S30.762,64,28,64L28,64z"/></g><g><path fill="#000000" d="M72,66c1.654,0,3,1.346,3,3s-1.346,3-3,3s-3-1.346-3-3S70.346,66,72,66 M72,64c-2.762,0-5,2.238-5,5    s2.238,5,5,5s5-2.238,5-5S74.762,64,72,64L72,64z"/></g></g><g><path d="M65.358,125.392c1.32,0,2.336,0.336,3.049,1.008c0.711,0.673,1.067,1.696,1.067,3.072c0,0.72-0.08,1.358-0.239,1.913   c-0.16,0.557-0.408,1.025-0.744,1.404c-0.336,0.381-0.765,0.67-1.285,0.871c-0.52,0.198-1.135,0.299-1.848,0.299h-2.939v-8.567   H65.358z M65.454,133c0.127,0,0.287-0.01,0.479-0.031c0.19-0.02,0.396-0.067,0.612-0.143c0.216-0.076,0.43-0.188,0.642-0.33   c0.212-0.146,0.402-0.341,0.57-0.588c0.168-0.248,0.306-0.56,0.414-0.932c0.106-0.372,0.161-0.822,0.161-1.352   c0-0.512-0.051-0.969-0.149-1.373c-0.101-0.403-0.264-0.748-0.491-1.031c-0.229-0.284-0.521-0.5-0.883-0.648   c-0.359-0.146-0.804-0.222-1.332-0.222h-1.92v6.647h1.896V133z"/><path d="M75.091,133.563c-0.464,0.353-1.048,0.528-1.752,0.528c-0.496,0-0.926-0.08-1.29-0.24s-0.67-0.385-0.918-0.672   c-0.248-0.288-0.435-0.633-0.56-1.032c-0.123-0.399-0.192-0.836-0.209-1.308c0-0.473,0.071-0.904,0.217-1.297   c0.144-0.393,0.346-0.731,0.604-1.021s0.568-0.512,0.925-0.672c0.355-0.16,0.745-0.24,1.17-0.24c0.553,0,1.01,0.114,1.373,0.343   c0.364,0.229,0.656,0.519,0.877,0.869c0.221,0.354,0.371,0.736,0.455,1.152s0.118,0.812,0.104,1.188h-4.645   c-0.009,0.271,0.023,0.529,0.096,0.773s0.188,0.46,0.349,0.648c0.16,0.188,0.364,0.338,0.612,0.449   c0.246,0.111,0.539,0.168,0.875,0.168c0.433,0,0.787-0.101,1.062-0.301c0.276-0.199,0.458-0.504,0.547-0.91h1.008   C75.854,132.688,75.555,133.211,75.091,133.563z M74.845,129.58c-0.092-0.217-0.216-0.401-0.372-0.559   c-0.155-0.156-0.34-0.279-0.552-0.372c-0.213-0.092-0.446-0.138-0.702-0.138c-0.265,0-0.502,0.046-0.714,0.138   c-0.213,0.093-0.395,0.218-0.547,0.378c-0.151,0.16-0.271,0.346-0.359,0.559c-0.088,0.211-0.141,0.438-0.156,0.679h3.564   C74.991,130.023,74.937,129.795,74.845,129.58z"/><path d="M77.922,132.574c0.096,0.155,0.222,0.279,0.378,0.371s0.332,0.158,0.527,0.198c0.197,0.04,0.397,0.06,0.605,0.06   c0.16,0,0.328-0.012,0.505-0.035s0.339-0.067,0.485-0.133c0.148-0.062,0.271-0.158,0.365-0.281   c0.097-0.125,0.145-0.281,0.145-0.475c0-0.264-0.1-0.464-0.3-0.6c-0.2-0.137-0.45-0.246-0.75-0.33s-0.626-0.16-0.978-0.229   c-0.354-0.067-0.68-0.164-0.979-0.287c-0.3-0.125-0.55-0.299-0.75-0.522s-0.3-0.536-0.3-0.937c0-0.312,0.07-0.58,0.21-0.805   c0.14-0.224,0.319-0.404,0.54-0.546c0.22-0.14,0.468-0.244,0.744-0.312c0.275-0.067,0.55-0.103,0.822-0.103   c0.352,0,0.676,0.03,0.971,0.091c0.297,0.061,0.559,0.163,0.787,0.312c0.228,0.147,0.41,0.348,0.545,0.6   c0.137,0.252,0.217,0.566,0.24,0.942h-1.021c-0.017-0.2-0.067-0.366-0.155-0.498c-0.089-0.133-0.199-0.238-0.337-0.318   c-0.136-0.078-0.286-0.138-0.448-0.174c-0.164-0.036-0.33-0.054-0.498-0.054c-0.152,0-0.308,0.012-0.463,0.034   c-0.156,0.024-0.299,0.066-0.427,0.127s-0.231,0.141-0.312,0.24c-0.08,0.101-0.121,0.229-0.121,0.391   c0,0.176,0.062,0.32,0.187,0.438c0.124,0.115,0.282,0.211,0.476,0.287c0.19,0.076,0.408,0.141,0.646,0.192   c0.24,0.052,0.48,0.106,0.721,0.161c0.256,0.057,0.506,0.125,0.75,0.205c0.243,0.08,0.461,0.186,0.647,0.316   c0.188,0.133,0.34,0.299,0.456,0.498c0.115,0.2,0.174,0.448,0.174,0.744c0,0.376-0.078,0.688-0.232,0.938   c-0.156,0.248-0.361,0.446-0.613,0.6c-0.252,0.152-0.535,0.258-0.852,0.318c-0.316,0.06-0.631,0.09-0.941,0.09   c-0.344,0-0.672-0.036-0.984-0.108c-0.312-0.071-0.588-0.19-0.827-0.354c-0.239-0.162-0.433-0.379-0.575-0.646   c-0.146-0.27-0.226-0.594-0.24-0.979h1.02C77.774,132.228,77.825,132.418,77.922,132.574z"/><path d="M83.202,126.64v-1.248h1.02v1.248H83.202z M84.222,127.756v6.203h-1.02v-6.203H84.222z"/><path d="M90.462,135.711c-0.465,0.504-1.192,0.756-2.184,0.756c-0.289,0-0.582-0.031-0.883-0.096s-0.572-0.168-0.816-0.312   c-0.243-0.145-0.445-0.332-0.605-0.562c-0.16-0.232-0.248-0.518-0.264-0.854h1.021c0.009,0.186,0.065,0.34,0.175,0.468   c0.106,0.128,0.239,0.232,0.396,0.312c0.155,0.08,0.326,0.139,0.511,0.175c0.184,0.034,0.359,0.054,0.527,0.054   c0.336,0,0.619-0.058,0.854-0.174c0.23-0.116,0.424-0.275,0.574-0.479c0.152-0.205,0.264-0.451,0.33-0.738   c0.068-0.288,0.104-0.604,0.104-0.948v-0.408h-0.024c-0.177,0.384-0.44,0.666-0.798,0.847c-0.355,0.181-0.734,0.271-1.135,0.271   c-0.463,0-0.867-0.084-1.211-0.252c-0.346-0.168-0.633-0.396-0.865-0.679c-0.231-0.283-0.405-0.615-0.521-0.995   c-0.116-0.382-0.175-0.782-0.175-1.206c0-0.368,0.049-0.746,0.145-1.135c0.097-0.389,0.256-0.739,0.479-1.057   c0.226-0.316,0.521-0.576,0.89-0.779c0.366-0.205,0.818-0.307,1.354-0.307c0.392,0,0.752,0.086,1.08,0.258   c0.327,0.172,0.584,0.432,0.769,0.774H90.2v-0.888h0.961v5.676C91.157,134.447,90.926,135.207,90.462,135.711z M89.159,132.922   c0.235-0.142,0.427-0.324,0.57-0.553c0.145-0.229,0.25-0.486,0.317-0.773c0.067-0.288,0.103-0.576,0.103-0.864   c0-0.272-0.031-0.54-0.097-0.804c-0.063-0.264-0.166-0.502-0.306-0.715c-0.141-0.211-0.322-0.381-0.547-0.51   c-0.225-0.127-0.496-0.191-0.815-0.191c-0.328,0-0.606,0.062-0.84,0.186c-0.232,0.125-0.423,0.29-0.569,0.498   c-0.148,0.209-0.257,0.448-0.324,0.721c-0.068,0.271-0.103,0.557-0.103,0.853c0,0.278,0.028,0.562,0.084,0.84   c0.058,0.28,0.151,0.534,0.288,0.763c0.136,0.229,0.316,0.412,0.54,0.553c0.224,0.14,0.504,0.209,0.84,0.209   S88.924,133.062,89.159,132.922z"/><path d="M93.653,127.756v0.982h0.024c0.424-0.751,1.097-1.128,2.017-1.128c0.407,0,0.748,0.058,1.021,0.168   c0.271,0.112,0.491,0.269,0.659,0.47c0.169,0.198,0.287,0.438,0.354,0.713c0.068,0.275,0.103,0.582,0.103,0.918v4.08h-1.021v-4.199   c0-0.385-0.112-0.688-0.336-0.912c-0.224-0.225-0.532-0.336-0.924-0.336c-0.312,0-0.582,0.048-0.81,0.145   c-0.229,0.096-0.42,0.231-0.57,0.407c-0.152,0.177-0.268,0.382-0.342,0.618c-0.076,0.236-0.114,0.494-0.114,0.773v3.504h-1.021   v-6.203H93.653z"/><path d="M103.758,133.563c-0.464,0.353-1.048,0.528-1.752,0.528c-0.496,0-0.927-0.08-1.29-0.24c-0.364-0.16-0.67-0.385-0.918-0.672   c-0.248-0.288-0.436-0.633-0.559-1.032c-0.125-0.399-0.193-0.836-0.211-1.308c0-0.473,0.072-0.904,0.217-1.297   s0.347-0.731,0.605-1.021c0.26-0.289,0.568-0.512,0.924-0.672c0.356-0.16,0.746-0.24,1.17-0.24c0.553,0,1.01,0.114,1.375,0.343   c0.363,0.229,0.655,0.519,0.875,0.869c0.221,0.354,0.373,0.736,0.457,1.152s0.117,0.812,0.103,1.188h-4.646   c-0.008,0.271,0.024,0.529,0.098,0.773c0.07,0.244,0.188,0.46,0.348,0.648c0.16,0.188,0.364,0.338,0.611,0.449   c0.248,0.111,0.541,0.168,0.877,0.168c0.432,0,0.785-0.101,1.062-0.301c0.276-0.199,0.458-0.504,0.546-0.91h1.008   C104.521,132.688,104.222,133.211,103.758,133.563z M103.512,129.58c-0.092-0.217-0.216-0.401-0.372-0.559   c-0.156-0.156-0.34-0.279-0.552-0.372c-0.212-0.092-0.446-0.138-0.702-0.138c-0.264,0-0.502,0.046-0.714,0.138   c-0.212,0.093-0.396,0.218-0.546,0.378c-0.152,0.16-0.272,0.346-0.36,0.559c-0.088,0.211-0.14,0.438-0.155,0.679h3.563   C103.657,130.023,103.604,129.795,103.512,129.58z"/><path d="M110.333,133.959v-0.84h-0.023c-0.168,0.344-0.432,0.592-0.792,0.743c-0.358,0.152-0.756,0.229-1.188,0.229   c-0.479,0-0.897-0.088-1.254-0.264c-0.355-0.178-0.651-0.412-0.888-0.709c-0.235-0.295-0.413-0.641-0.534-1.031   c-0.119-0.394-0.181-0.81-0.181-1.248c0-0.44,0.06-0.856,0.175-1.248c0.115-0.393,0.291-0.734,0.527-1.026s0.531-0.524,0.889-0.696   c0.355-0.172,0.77-0.258,1.241-0.258c0.16,0,0.332,0.016,0.517,0.049c0.185,0.031,0.367,0.086,0.553,0.161   c0.184,0.076,0.356,0.177,0.521,0.3c0.164,0.125,0.304,0.278,0.414,0.463h0.024v-3.191h1.02v8.566H110.333L110.333,133.959z    M106.667,131.758c0.076,0.275,0.193,0.521,0.349,0.738c0.156,0.215,0.356,0.388,0.601,0.516c0.246,0.128,0.529,0.191,0.857,0.191   c0.344,0,0.637-0.067,0.876-0.203c0.24-0.138,0.437-0.314,0.589-0.535c0.151-0.219,0.262-0.469,0.329-0.75   c0.068-0.279,0.103-0.563,0.103-0.853c0-0.304-0.035-0.598-0.107-0.882c-0.07-0.284-0.186-0.534-0.342-0.75   s-0.358-0.391-0.605-0.521c-0.248-0.131-0.549-0.197-0.9-0.197c-0.344,0-0.635,0.068-0.875,0.203   c-0.24,0.137-0.432,0.316-0.576,0.541c-0.145,0.224-0.248,0.479-0.312,0.768c-0.063,0.288-0.097,0.584-0.097,0.889   C106.554,131.199,106.592,131.481,106.667,131.758z"/><path d="M117.317,125.392v3.204h0.023c0.168-0.344,0.434-0.594,0.792-0.75c0.36-0.156,0.757-0.234,1.188-0.234   c0.479,0,0.896,0.088,1.254,0.264c0.354,0.178,0.651,0.414,0.888,0.715c0.235,0.301,0.414,0.646,0.534,1.037   c0.119,0.394,0.18,0.81,0.18,1.248c0,0.44-0.059,0.856-0.174,1.248c-0.116,0.394-0.292,0.734-0.527,1.026   c-0.236,0.292-0.531,0.522-0.889,0.69c-0.355,0.168-0.77,0.252-1.242,0.252c-0.15,0-0.32-0.018-0.51-0.049   c-0.188-0.031-0.374-0.084-0.559-0.155c-0.185-0.072-0.357-0.17-0.521-0.294s-0.303-0.278-0.414-0.463h-0.023v0.828h-1.021v-8.567   H117.317z M120.983,129.957c-0.076-0.275-0.191-0.521-0.349-0.738c-0.155-0.215-0.354-0.387-0.601-0.516   c-0.244-0.127-0.529-0.191-0.857-0.191c-0.344,0-0.637,0.068-0.876,0.203c-0.239,0.137-0.437,0.313-0.588,0.535   c-0.151,0.22-0.263,0.47-0.33,0.75c-0.067,0.278-0.103,0.562-0.103,0.852c0,0.305,0.037,0.598,0.108,0.882s0.187,0.534,0.342,0.75   s0.357,0.39,0.604,0.522c0.248,0.132,0.549,0.197,0.9,0.197c0.353,0,0.646-0.067,0.883-0.203c0.235-0.138,0.426-0.316,0.569-0.541   c0.144-0.224,0.248-0.479,0.312-0.769c0.064-0.288,0.097-0.584,0.097-0.888C121.097,130.516,121.06,130.233,120.983,129.957z"/><path d="M125.813,134.787c-0.119,0.306-0.238,0.562-0.354,0.77s-0.244,0.378-0.385,0.51c-0.14,0.133-0.295,0.229-0.467,0.288   c-0.173,0.06-0.371,0.09-0.595,0.09c-0.12,0-0.239-0.008-0.36-0.022c-0.119-0.018-0.236-0.045-0.348-0.084V135.4   c0.088,0.04,0.189,0.073,0.307,0.104c0.115,0.026,0.213,0.041,0.293,0.041c0.209,0,0.383-0.049,0.522-0.149   s0.246-0.242,0.317-0.427l0.42-1.043l-2.461-6.168h1.152l1.812,5.076h0.023l1.74-5.076h1.08L125.813,134.787z"/><path d="M136.47,125.392l3.348,8.567h-1.26l-0.938-2.58h-3.623l-0.961,2.58h-1.164l3.336-8.567H136.47z M137.262,130.42   l-1.429-3.996h-0.023l-1.451,3.996H137.262z"/><path d="M141.45,127.756v0.982h0.023c0.424-0.751,1.096-1.128,2.016-1.128c0.408,0,0.748,0.058,1.021,0.168   c0.271,0.112,0.492,0.269,0.66,0.47c0.168,0.198,0.285,0.438,0.354,0.713s0.104,0.582,0.104,0.918v4.08h-1.021v-4.199   c0-0.385-0.111-0.688-0.336-0.912c-0.224-0.225-0.531-0.336-0.924-0.336c-0.312,0-0.582,0.048-0.811,0.145   c-0.229,0.096-0.418,0.231-0.569,0.407c-0.151,0.177-0.267,0.382-0.343,0.618c-0.075,0.236-0.113,0.494-0.113,0.773v3.504h-1.021   v-6.203H141.45z"/><path d="M151.686,133.959v-0.84h-0.024c-0.168,0.344-0.432,0.592-0.791,0.743c-0.359,0.152-0.756,0.229-1.188,0.229   c-0.479,0-0.897-0.088-1.254-0.264c-0.356-0.178-0.651-0.412-0.888-0.709c-0.236-0.295-0.414-0.641-0.534-1.031   c-0.12-0.394-0.181-0.81-0.181-1.248c0-0.44,0.059-0.856,0.174-1.248c0.115-0.393,0.291-0.734,0.527-1.026s0.532-0.524,0.889-0.696   c0.355-0.172,0.771-0.258,1.242-0.258c0.16,0,0.332,0.016,0.517,0.049c0.185,0.031,0.366,0.086,0.552,0.161   c0.184,0.076,0.357,0.177,0.521,0.3c0.164,0.125,0.303,0.278,0.414,0.463h0.023v-3.191h1.02v8.566H151.686L151.686,133.959z    M148.02,131.758c0.076,0.275,0.192,0.521,0.349,0.738c0.156,0.215,0.355,0.388,0.601,0.516s0.528,0.191,0.856,0.191   c0.345,0,0.638-0.067,0.877-0.203c0.24-0.138,0.437-0.314,0.588-0.535c0.152-0.219,0.263-0.469,0.33-0.75   c0.067-0.279,0.103-0.563,0.103-0.853c0-0.304-0.036-0.598-0.108-0.882c-0.07-0.284-0.186-0.534-0.342-0.75   s-0.357-0.391-0.604-0.521c-0.248-0.131-0.55-0.197-0.9-0.197c-0.344,0-0.636,0.068-0.876,0.203   c-0.24,0.137-0.432,0.316-0.576,0.541c-0.144,0.224-0.248,0.479-0.312,0.768c-0.063,0.288-0.097,0.584-0.097,0.889   C147.905,131.199,147.944,131.481,148.02,131.758z"/><path d="M155.2,127.756v1.308h0.023c0.248-0.504,0.553-0.876,0.912-1.116s0.816-0.352,1.368-0.336v1.08   c-0.408,0-0.757,0.057-1.044,0.168c-0.288,0.112-0.521,0.275-0.696,0.492c-0.176,0.216-0.304,0.479-0.384,0.786   c-0.08,0.307-0.12,0.661-0.12,1.062v2.76h-1.021v-6.203H155.2L155.2,127.756z"/><path d="M162.45,133.563c-0.465,0.353-1.049,0.528-1.752,0.528c-0.496,0-0.927-0.08-1.291-0.24c-0.363-0.16-0.67-0.385-0.918-0.672   c-0.248-0.288-0.435-0.633-0.559-1.032s-0.193-0.836-0.21-1.308c0-0.473,0.071-0.904,0.217-1.297   c0.144-0.393,0.347-0.731,0.604-1.021c0.26-0.289,0.568-0.512,0.925-0.672s0.746-0.24,1.17-0.24c0.553,0,1.01,0.114,1.374,0.343   c0.363,0.229,0.656,0.519,0.876,0.869c0.222,0.354,0.372,0.736,0.456,1.152s0.117,0.812,0.104,1.188h-4.646   c-0.009,0.271,0.024,0.529,0.097,0.773c0.071,0.244,0.188,0.46,0.348,0.648c0.16,0.188,0.365,0.338,0.613,0.449   c0.246,0.111,0.539,0.168,0.875,0.168c0.432,0,0.786-0.101,1.062-0.301c0.275-0.199,0.458-0.504,0.546-0.91h1.008   C163.213,132.688,162.913,133.211,162.45,133.563z M162.202,129.58c-0.092-0.217-0.215-0.401-0.371-0.559   c-0.156-0.156-0.34-0.279-0.553-0.372c-0.211-0.092-0.445-0.138-0.701-0.138c-0.265,0-0.502,0.046-0.715,0.138   c-0.211,0.093-0.395,0.218-0.545,0.378c-0.152,0.16-0.272,0.346-0.361,0.559c-0.088,0.211-0.139,0.438-0.155,0.679h3.563   C162.349,130.023,162.295,129.795,162.202,129.58z"/><path d="M166.938,134.787c-0.12,0.306-0.237,0.562-0.354,0.77c-0.114,0.208-0.243,0.378-0.383,0.51   c-0.141,0.133-0.297,0.229-0.469,0.288s-0.369,0.09-0.594,0.09c-0.12,0-0.24-0.008-0.359-0.022   c-0.121-0.018-0.236-0.045-0.349-0.084V135.4c0.088,0.04,0.188,0.073,0.306,0.104c0.116,0.026,0.215,0.041,0.295,0.041   c0.207,0,0.381-0.049,0.521-0.149s0.246-0.242,0.316-0.427l0.42-1.043l-2.459-6.168h1.151l1.812,5.076h0.025l1.739-5.076h1.08   L166.938,134.787z"/><path d="M175.146,125.392v4.272l4.344-4.272h1.478l-3.612,3.456l3.756,5.111h-1.439l-3.096-4.332l-1.429,1.332v3h-1.141v-8.567   H175.146z"/><path d="M182.766,127.756v1.308h0.022c0.248-0.504,0.553-0.876,0.912-1.116c0.36-0.24,0.816-0.352,1.369-0.336v1.08   c-0.408,0-0.757,0.057-1.045,0.168c-0.287,0.112-0.521,0.275-0.695,0.492c-0.176,0.216-0.305,0.479-0.385,0.786   c-0.08,0.307-0.119,0.661-0.119,1.062v2.76h-1.021v-6.203H182.766L182.766,127.756z"/><path d="M188.274,134.787c-0.121,0.306-0.238,0.562-0.354,0.77c-0.115,0.208-0.244,0.378-0.384,0.51   c-0.141,0.133-0.297,0.229-0.469,0.288s-0.369,0.09-0.594,0.09c-0.12,0-0.24-0.008-0.359-0.022   c-0.121-0.018-0.236-0.045-0.349-0.084V135.4c0.088,0.04,0.188,0.073,0.306,0.104c0.116,0.026,0.215,0.041,0.295,0.041   c0.207,0,0.381-0.049,0.521-0.149s0.246-0.242,0.316-0.427l0.42-1.043l-2.459-6.168h1.152l1.812,5.076h0.024l1.739-5.076h1.08   L188.274,134.787z"/><path d="M192.917,125.392v8.567h-1.021v-8.567H192.917z"/><path d="M194.356,129.586c0.129-0.396,0.32-0.74,0.576-1.032s0.571-0.522,0.948-0.69c0.376-0.168,0.808-0.252,1.296-0.252   c0.495,0,0.93,0.084,1.302,0.252s0.687,0.398,0.942,0.69s0.447,0.636,0.574,1.032c0.129,0.396,0.192,0.822,0.192,1.276   c0,0.456-0.063,0.882-0.192,1.271c-0.127,0.393-0.318,0.733-0.574,1.026c-0.258,0.291-0.57,0.521-0.942,0.685   s-0.807,0.245-1.302,0.245c-0.488,0-0.92-0.081-1.296-0.245c-0.377-0.164-0.692-0.394-0.948-0.685   c-0.256-0.293-0.447-0.635-0.576-1.026c-0.128-0.392-0.191-0.815-0.191-1.271C194.163,130.408,194.229,129.981,194.356,129.586z    M195.395,131.865c0.101,0.293,0.238,0.536,0.414,0.732c0.177,0.195,0.382,0.346,0.618,0.449c0.234,0.104,0.484,0.156,0.75,0.156   c0.264,0,0.514-0.053,0.75-0.156c0.234-0.104,0.441-0.254,0.617-0.449c0.177-0.196,0.314-0.439,0.414-0.732   c0.101-0.291,0.15-0.625,0.15-1.002c0-0.376-0.051-0.709-0.15-1.002c-0.1-0.292-0.237-0.537-0.414-0.738   c-0.176-0.198-0.383-0.352-0.617-0.455c-0.236-0.104-0.486-0.155-0.75-0.155c-0.266,0-0.516,0.052-0.75,0.155   c-0.236,0.104-0.441,0.256-0.618,0.455c-0.176,0.201-0.313,0.446-0.414,0.738c-0.101,0.293-0.149,0.626-0.149,1.002   C195.243,131.24,195.294,131.574,195.395,131.865z"/><path d="M203.092,133.959l-2.304-6.203h1.14l1.739,5.172h0.025l1.69-5.172h1.067l-2.268,6.203H203.092z"/><path d="M66.774,162.76v-0.84h-0.023c-0.168,0.344-0.432,0.592-0.793,0.742c-0.358,0.151-0.756,0.229-1.188,0.229   c-0.48,0-0.898-0.088-1.254-0.264s-0.652-0.412-0.888-0.707c-0.236-0.297-0.414-0.642-0.534-1.033   c-0.12-0.391-0.182-0.809-0.182-1.248s0.06-0.855,0.176-1.248c0.115-0.391,0.291-0.732,0.527-1.025   c0.235-0.291,0.531-0.522,0.889-0.695c0.355-0.172,0.77-0.258,1.24-0.258c0.16,0,0.332,0.017,0.518,0.047   c0.184,0.033,0.367,0.086,0.553,0.162c0.184,0.076,0.356,0.176,0.521,0.301c0.163,0.123,0.303,0.277,0.413,0.462h0.025v-3.191h1.02   v8.568L66.774,162.76L66.774,162.76z M63.108,160.557c0.076,0.277,0.192,0.521,0.348,0.738c0.156,0.217,0.356,0.389,0.602,0.516   c0.244,0.129,0.529,0.193,0.857,0.193c0.344,0,0.637-0.068,0.875-0.205c0.24-0.135,0.438-0.313,0.59-0.533   c0.15-0.221,0.262-0.471,0.328-0.75c0.068-0.28,0.104-0.564,0.104-0.854c0-0.304-0.035-0.598-0.107-0.881   c-0.071-0.283-0.187-0.535-0.342-0.75c-0.156-0.217-0.358-0.392-0.605-0.521c-0.248-0.133-0.549-0.199-0.9-0.199   c-0.344,0-0.636,0.068-0.876,0.205c-0.239,0.136-0.432,0.316-0.575,0.539c-0.145,0.225-0.248,0.48-0.312,0.77   c-0.064,0.287-0.098,0.584-0.098,0.887C62.993,160,63.032,160.281,63.108,160.557z"/><path d="M70.29,156.555v1.309h0.023c0.248-0.504,0.553-0.876,0.912-1.115c0.36-0.239,0.816-0.353,1.368-0.336v1.08   c-0.408,0-0.756,0.055-1.044,0.168c-0.288,0.111-0.521,0.275-0.696,0.491s-0.304,0.478-0.384,0.786S70.35,159.6,70.35,160v2.76   h-1.021v-6.205H70.29z"/><path d="M73.422,155.439v-1.248h1.021v1.248H73.422z M74.442,156.555v6.205h-1.021v-6.205H74.442z"/><path d="M77.081,154.191v3.204h0.023c0.168-0.345,0.434-0.595,0.792-0.75c0.36-0.155,0.757-0.233,1.188-0.233   c0.479,0,0.896,0.088,1.254,0.265c0.355,0.176,0.652,0.413,0.888,0.713c0.236,0.301,0.414,0.646,0.534,1.039   c0.12,0.392,0.18,0.808,0.18,1.248c0,0.438-0.058,0.854-0.174,1.248c-0.115,0.392-0.292,0.733-0.527,1.024   c-0.235,0.293-0.531,0.521-0.889,0.689c-0.355,0.168-0.77,0.252-1.242,0.252c-0.15,0-0.32-0.016-0.51-0.047   c-0.188-0.033-0.374-0.084-0.559-0.156s-0.357-0.17-0.521-0.295c-0.164-0.123-0.302-0.277-0.414-0.461h-0.023v0.828h-1.021v-8.568   H77.081z M80.747,158.758c-0.075-0.276-0.191-0.522-0.348-0.738c-0.156-0.217-0.355-0.389-0.601-0.516   c-0.244-0.129-0.53-0.193-0.858-0.193c-0.344,0-0.636,0.068-0.875,0.205c-0.24,0.136-0.437,0.312-0.589,0.533   c-0.151,0.221-0.262,0.471-0.33,0.75c-0.067,0.281-0.102,0.563-0.102,0.853c0,0.304,0.036,0.599,0.108,0.882   c0.07,0.284,0.186,0.534,0.342,0.75c0.154,0.217,0.356,0.392,0.604,0.521c0.248,0.133,0.548,0.199,0.899,0.199   c0.353,0,0.646-0.068,0.883-0.205c0.236-0.135,0.426-0.315,0.57-0.539c0.144-0.225,0.248-0.48,0.312-0.77   c0.063-0.287,0.097-0.584,0.097-0.888C80.862,159.315,80.825,159.033,80.747,158.758z"/><path d="M84.198,154.191v3.204h0.023c0.168-0.345,0.434-0.595,0.792-0.75c0.36-0.155,0.757-0.233,1.188-0.233   c0.479,0,0.896,0.088,1.254,0.265c0.354,0.176,0.652,0.413,0.888,0.713c0.235,0.301,0.414,0.646,0.534,1.039   c0.119,0.392,0.18,0.808,0.18,1.248c0,0.438-0.059,0.854-0.174,1.248c-0.116,0.392-0.292,0.733-0.527,1.024   c-0.236,0.293-0.531,0.521-0.889,0.689c-0.355,0.168-0.77,0.252-1.242,0.252c-0.15,0-0.32-0.016-0.51-0.047   c-0.188-0.033-0.374-0.084-0.559-0.156s-0.357-0.17-0.521-0.295c-0.164-0.123-0.303-0.277-0.414-0.461h-0.023v0.828h-1.021v-8.568   H84.198z M87.864,158.758c-0.076-0.276-0.191-0.522-0.349-0.738c-0.155-0.217-0.354-0.389-0.601-0.516   c-0.243-0.129-0.529-0.193-0.857-0.193c-0.344,0-0.636,0.068-0.876,0.205c-0.239,0.136-0.437,0.312-0.588,0.533   s-0.263,0.471-0.33,0.75c-0.067,0.281-0.103,0.563-0.103,0.853c0,0.304,0.037,0.599,0.108,0.882   c0.071,0.284,0.187,0.534,0.343,0.75c0.154,0.217,0.356,0.392,0.604,0.521c0.248,0.133,0.548,0.199,0.899,0.199   c0.353,0,0.646-0.068,0.883-0.205c0.236-0.135,0.426-0.315,0.57-0.539c0.144-0.225,0.248-0.48,0.312-0.77   c0.063-0.287,0.096-0.584,0.096-0.888C87.978,159.315,87.94,159.033,87.864,158.758z"/><path d="M91.313,154.191v3.204h0.023c0.168-0.345,0.433-0.595,0.792-0.75c0.36-0.155,0.757-0.233,1.188-0.233   c0.479,0,0.896,0.088,1.254,0.265c0.354,0.176,0.651,0.413,0.887,0.713c0.236,0.301,0.414,0.646,0.535,1.039   c0.119,0.392,0.18,0.808,0.18,1.248c0,0.438-0.059,0.854-0.174,1.248c-0.116,0.392-0.293,0.733-0.527,1.024   c-0.236,0.293-0.531,0.521-0.889,0.689c-0.355,0.168-0.771,0.252-1.242,0.252c-0.15,0-0.321-0.016-0.51-0.047   c-0.188-0.033-0.375-0.084-0.559-0.156c-0.185-0.072-0.357-0.17-0.521-0.295c-0.164-0.123-0.303-0.277-0.414-0.461h-0.023v0.828   h-1.021v-8.568H91.313z M94.979,158.758c-0.076-0.276-0.191-0.522-0.349-0.738c-0.155-0.217-0.354-0.389-0.601-0.516   c-0.244-0.129-0.529-0.193-0.857-0.193c-0.344,0-0.637,0.068-0.876,0.205c-0.239,0.136-0.437,0.312-0.589,0.533   c-0.15,0.221-0.262,0.471-0.329,0.75c-0.067,0.281-0.103,0.563-0.103,0.853c0,0.304,0.036,0.599,0.108,0.882   c0.071,0.284,0.187,0.534,0.342,0.75c0.155,0.217,0.356,0.392,0.604,0.521c0.248,0.133,0.549,0.199,0.9,0.199   s0.646-0.068,0.883-0.205c0.235-0.135,0.426-0.315,0.569-0.539c0.144-0.225,0.248-0.48,0.312-0.77   c0.064-0.287,0.097-0.584,0.097-0.888C95.093,159.315,95.056,159.033,94.979,158.758z"/><path d="M98.452,154.191v8.568h-1.02v-8.568H98.452z"/><path d="M104.43,162.363c-0.464,0.352-1.048,0.527-1.752,0.527c-0.496,0-0.926-0.08-1.29-0.239   c-0.363-0.159-0.67-0.384-0.918-0.672s-0.436-0.632-0.559-1.032c-0.125-0.4-0.193-0.836-0.211-1.309   c0-0.471,0.072-0.903,0.218-1.295c0.144-0.393,0.346-0.732,0.604-1.021c0.26-0.289,0.568-0.512,0.924-0.672   c0.356-0.16,0.746-0.24,1.17-0.24c0.554,0,1.011,0.114,1.375,0.344c0.363,0.228,0.655,0.518,0.875,0.869   c0.222,0.353,0.373,0.735,0.457,1.151s0.117,0.812,0.103,1.188h-4.646c-0.008,0.271,0.024,0.529,0.098,0.773   c0.07,0.244,0.188,0.46,0.348,0.647s0.364,0.338,0.612,0.45c0.247,0.111,0.54,0.168,0.876,0.168c0.432,0,0.785-0.101,1.062-0.301   c0.275-0.199,0.457-0.504,0.545-0.912h1.008C105.194,161.487,104.894,162.012,104.43,162.363z M104.184,158.379   c-0.092-0.217-0.216-0.402-0.372-0.559s-0.34-0.279-0.552-0.371c-0.212-0.093-0.446-0.14-0.702-0.14   c-0.264,0-0.502,0.047-0.714,0.14c-0.212,0.092-0.396,0.219-0.546,0.377c-0.152,0.16-0.271,0.348-0.36,0.559   c-0.088,0.213-0.14,0.438-0.155,0.679h3.563C104.329,158.824,104.276,158.596,104.184,158.379z"/><path d="M108.04,161.428v1.332h-1.332v-1.332H108.04z"/><path d="M113.524,157.635c-0.256-0.215-0.6-0.324-1.031-0.324c-0.367,0-0.676,0.068-0.924,0.205   c-0.248,0.136-0.445,0.316-0.595,0.539c-0.147,0.225-0.254,0.482-0.317,0.773c-0.063,0.293-0.097,0.596-0.097,0.906   c0,0.288,0.034,0.567,0.103,0.84c0.067,0.272,0.175,0.516,0.317,0.727c0.146,0.213,0.332,0.383,0.564,0.51   c0.231,0.129,0.508,0.193,0.827,0.193c0.504,0,0.897-0.133,1.183-0.396c0.285-0.263,0.458-0.637,0.522-1.115h1.043   c-0.111,0.769-0.397,1.359-0.857,1.775s-1.086,0.623-1.878,0.623c-0.472,0-0.89-0.076-1.254-0.229   c-0.364-0.151-0.668-0.367-0.912-0.646c-0.244-0.28-0.429-0.614-0.552-1.002c-0.125-0.389-0.188-0.814-0.188-1.278   s0.061-0.897,0.182-1.302c0.119-0.405,0.302-0.756,0.545-1.057c0.244-0.301,0.551-0.535,0.918-0.707   c0.369-0.172,0.797-0.26,1.285-0.26c0.352,0,0.682,0.043,0.988,0.127c0.309,0.084,0.58,0.215,0.816,0.391s0.43,0.396,0.582,0.666   c0.15,0.268,0.248,0.586,0.287,0.953h-1.055C113.95,158.156,113.782,157.852,113.524,157.635z"/><path d="M116.116,158.385c0.129-0.396,0.32-0.739,0.576-1.031s0.571-0.521,0.948-0.689c0.376-0.168,0.808-0.252,1.296-0.252   c0.495,0,0.93,0.084,1.303,0.252c0.371,0.168,0.686,0.397,0.941,0.689s0.447,0.637,0.575,1.031   c0.128,0.396,0.192,0.822,0.192,1.277c0,0.457-0.064,0.881-0.192,1.272s-0.319,0.733-0.575,1.024   c-0.257,0.293-0.57,0.521-0.941,0.686c-0.373,0.163-0.808,0.245-1.303,0.245c-0.488,0-0.92-0.082-1.296-0.245   c-0.377-0.164-0.692-0.393-0.948-0.686c-0.256-0.291-0.447-0.633-0.576-1.024c-0.127-0.394-0.191-0.815-0.191-1.272   C115.925,159.207,115.989,158.781,116.116,158.385z M117.155,160.664c0.101,0.293,0.238,0.537,0.414,0.732   c0.176,0.196,0.383,0.346,0.618,0.45s0.485,0.155,0.75,0.155s0.515-0.053,0.75-0.155c0.235-0.104,0.441-0.254,0.617-0.45   c0.177-0.195,0.313-0.439,0.414-0.732c0.101-0.291,0.149-0.625,0.149-1.002c0-0.375-0.049-0.709-0.149-1.002   c-0.101-0.291-0.237-0.537-0.414-0.736c-0.176-0.2-0.382-0.354-0.617-0.457c-0.235-0.104-0.485-0.156-0.75-0.156   s-0.515,0.053-0.75,0.156s-0.442,0.257-0.618,0.457c-0.176,0.199-0.313,0.445-0.414,0.736c-0.101,0.293-0.149,0.627-0.149,1.002   C117.006,160.039,117.055,160.373,117.155,160.664z"/><path d="M124.108,156.555v0.912h0.024c0.464-0.703,1.132-1.057,2.004-1.057c0.384,0,0.731,0.08,1.044,0.24s0.532,0.434,0.66,0.815   c0.208-0.337,0.48-0.597,0.822-0.779c0.34-0.185,0.714-0.276,1.121-0.276c0.312,0,0.595,0.034,0.847,0.104   c0.252,0.068,0.468,0.174,0.647,0.316c0.18,0.145,0.319,0.33,0.42,0.559s0.149,0.503,0.149,0.822v4.549h-1.021v-4.068   c0-0.191-0.017-0.372-0.047-0.54c-0.033-0.168-0.094-0.313-0.182-0.438c-0.088-0.122-0.21-0.221-0.365-0.293   c-0.156-0.071-0.357-0.108-0.605-0.108c-0.504,0-0.9,0.146-1.188,0.433c-0.286,0.289-0.432,0.672-0.432,1.152v3.864h-1.021v-4.068   c0-0.2-0.019-0.385-0.055-0.553s-0.098-0.313-0.186-0.438s-0.207-0.22-0.354-0.287s-0.338-0.104-0.569-0.104   c-0.297,0-0.551,0.061-0.763,0.182c-0.212,0.119-0.384,0.265-0.516,0.433s-0.228,0.342-0.288,0.521   c-0.061,0.18-0.09,0.33-0.09,0.45v3.864h-1.021v-6.205H124.108z"/><path d="M136.829,153.987l-3.553,8.964h-0.863l3.539-8.964H136.829z"/><path d="M138.46,154.191v5.076l2.832-2.713h1.367l-2.459,2.256l2.64,3.949h-1.296l-2.124-3.24l-0.96,0.889v2.353h-1.021v-8.568   L138.46,154.191L138.46,154.191z"/><path d="M144.532,156.555v1.309h0.023c0.248-0.504,0.553-0.876,0.912-1.115s0.816-0.353,1.368-0.336v1.08   c-0.408,0-0.757,0.055-1.044,0.168c-0.288,0.111-0.521,0.275-0.696,0.491s-0.304,0.478-0.384,0.786s-0.12,0.662-0.12,1.062v2.76   h-1.021v-6.205H144.532z"/><path d="M150.04,163.588c-0.119,0.303-0.237,0.559-0.354,0.768c-0.115,0.207-0.244,0.378-0.384,0.51   c-0.14,0.133-0.296,0.229-0.468,0.288c-0.172,0.06-0.37,0.091-0.594,0.091c-0.121,0-0.24-0.009-0.36-0.024   c-0.12-0.017-0.236-0.043-0.349-0.084v-0.937c0.088,0.04,0.189,0.074,0.307,0.103c0.115,0.028,0.214,0.043,0.294,0.043   c0.208,0,0.382-0.052,0.522-0.15c0.14-0.1,0.246-0.241,0.316-0.426l0.42-1.045l-2.46-6.168h1.151l1.812,5.075h0.024l1.739-5.075   h1.08L150.04,163.588z"/><path d="M154.661,156.555v0.841h0.022c0.168-0.345,0.433-0.595,0.792-0.75c0.36-0.155,0.758-0.233,1.188-0.233   c0.479,0,0.897,0.088,1.254,0.265c0.355,0.176,0.652,0.414,0.889,0.713c0.236,0.301,0.414,0.646,0.534,1.039   c0.12,0.392,0.18,0.808,0.18,1.248c0,0.438-0.058,0.854-0.174,1.248c-0.116,0.392-0.292,0.733-0.526,1.024   c-0.236,0.293-0.533,0.521-0.89,0.689c-0.354,0.168-0.771,0.252-1.242,0.252c-0.151,0-0.321-0.016-0.51-0.047   c-0.188-0.033-0.374-0.084-0.558-0.156c-0.186-0.072-0.358-0.17-0.522-0.295c-0.164-0.123-0.302-0.277-0.414-0.461h-0.022v3.191   h-1.021v-8.568H154.661z M158.327,158.758c-0.076-0.276-0.192-0.522-0.35-0.738c-0.154-0.217-0.355-0.389-0.6-0.516   c-0.244-0.129-0.53-0.193-0.858-0.193c-0.344,0-0.636,0.068-0.876,0.205c-0.238,0.136-0.436,0.312-0.588,0.533   c-0.15,0.221-0.262,0.471-0.33,0.75c-0.066,0.281-0.102,0.563-0.102,0.853c0,0.304,0.035,0.599,0.107,0.882   c0.071,0.284,0.186,0.534,0.342,0.75c0.155,0.217,0.357,0.392,0.605,0.521c0.248,0.133,0.548,0.199,0.9,0.199   c0.352,0,0.646-0.068,0.881-0.205c0.236-0.135,0.427-0.315,0.57-0.539c0.145-0.225,0.248-0.48,0.312-0.77   c0.064-0.287,0.096-0.584,0.096-0.888C158.44,159.315,158.403,159.033,158.327,158.758z"/><path d="M163.372,156.555v0.9h-1.236v3.852c0,0.121,0.011,0.217,0.029,0.289c0.02,0.072,0.059,0.127,0.115,0.168   c0.056,0.039,0.133,0.064,0.232,0.078c0.102,0.012,0.23,0.018,0.391,0.018h0.469v0.9h-0.78c-0.265,0-0.49-0.02-0.679-0.055   c-0.188-0.035-0.34-0.103-0.455-0.197c-0.116-0.098-0.202-0.232-0.258-0.408c-0.057-0.176-0.084-0.408-0.084-0.696v-3.948h-1.057   v-0.899h1.057v-1.858h1.02v1.858L163.372,156.555L163.372,156.555z"/><path d="M164.356,158.385c0.129-0.396,0.32-0.739,0.576-1.031s0.571-0.521,0.948-0.689c0.376-0.168,0.808-0.252,1.296-0.252   c0.495,0,0.93,0.084,1.302,0.252s0.687,0.397,0.942,0.689s0.447,0.637,0.574,1.031c0.129,0.396,0.192,0.822,0.192,1.277   c0,0.457-0.063,0.881-0.192,1.272c-0.127,0.392-0.318,0.733-0.574,1.024c-0.258,0.293-0.57,0.521-0.942,0.686   c-0.372,0.163-0.807,0.245-1.302,0.245c-0.488,0-0.92-0.082-1.296-0.245c-0.377-0.164-0.692-0.393-0.948-0.686   c-0.256-0.291-0.447-0.633-0.576-1.024c-0.128-0.394-0.191-0.815-0.191-1.272C164.165,159.207,164.229,158.781,164.356,158.385z    M165.395,160.664c0.101,0.293,0.238,0.537,0.414,0.732c0.177,0.196,0.382,0.346,0.618,0.45c0.234,0.104,0.484,0.155,0.75,0.155   c0.264,0,0.514-0.053,0.75-0.155c0.234-0.104,0.441-0.254,0.617-0.45c0.177-0.195,0.314-0.439,0.414-0.732   c0.101-0.291,0.15-0.625,0.15-1.002c0-0.375-0.051-0.709-0.15-1.002c-0.1-0.291-0.237-0.537-0.414-0.736   c-0.176-0.2-0.383-0.354-0.617-0.457c-0.236-0.104-0.486-0.156-0.75-0.156c-0.266,0-0.516,0.053-0.75,0.156   c-0.236,0.104-0.441,0.257-0.618,0.457c-0.176,0.199-0.313,0.445-0.414,0.736c-0.101,0.293-0.149,0.627-0.149,1.002   C165.245,160.039,165.294,160.373,165.395,160.664z"/><path d="M172.348,156.555v0.984h0.024c0.424-0.752,1.096-1.129,2.016-1.129c0.408,0,0.748,0.057,1.021,0.168   c0.271,0.112,0.492,0.27,0.66,0.469c0.168,0.201,0.285,0.438,0.354,0.715c0.068,0.275,0.104,0.582,0.104,0.918v4.08h-1.021v-4.201   c0-0.383-0.112-0.688-0.336-0.911c-0.225-0.223-0.532-0.337-0.924-0.337c-0.312,0-0.582,0.049-0.811,0.145   c-0.229,0.097-0.419,0.232-0.57,0.408s-0.267,0.383-0.342,0.618c-0.076,0.235-0.113,0.493-0.113,0.774v3.504h-1.021v-6.205H172.348   L172.348,156.555z"/><path d="M179.14,154.191v8.568h-1.02v-8.568H179.14z"/><path d="M180.579,158.385c0.129-0.396,0.32-0.739,0.576-1.031s0.571-0.521,0.948-0.689c0.376-0.168,0.808-0.252,1.296-0.252   c0.495,0,0.93,0.084,1.303,0.252c0.371,0.168,0.686,0.397,0.941,0.689s0.447,0.637,0.575,1.031   c0.128,0.396,0.192,0.822,0.192,1.277c0,0.457-0.064,0.881-0.192,1.272s-0.319,0.733-0.575,1.024   c-0.257,0.293-0.57,0.521-0.941,0.686c-0.373,0.163-0.808,0.245-1.303,0.245c-0.488,0-0.92-0.082-1.296-0.245   c-0.377-0.164-0.692-0.393-0.948-0.686c-0.256-0.291-0.447-0.633-0.576-1.024c-0.127-0.394-0.191-0.815-0.191-1.272   C180.388,159.207,180.452,158.781,180.579,158.385z M181.618,160.664c0.1,0.293,0.237,0.537,0.414,0.732   c0.176,0.196,0.381,0.346,0.617,0.45c0.235,0.104,0.485,0.155,0.75,0.155c0.264,0,0.514-0.053,0.75-0.155   c0.235-0.104,0.441-0.254,0.617-0.45c0.178-0.195,0.314-0.439,0.414-0.732c0.102-0.291,0.15-0.625,0.15-1.002   c0-0.375-0.051-0.709-0.15-1.002c-0.1-0.291-0.236-0.537-0.414-0.736c-0.176-0.2-0.382-0.354-0.617-0.457   c-0.236-0.104-0.486-0.156-0.75-0.156c-0.265,0-0.515,0.053-0.75,0.156c-0.236,0.104-0.441,0.257-0.617,0.457   c-0.177,0.199-0.314,0.445-0.414,0.736c-0.102,0.293-0.15,0.627-0.15,1.002C181.468,160.039,181.518,160.373,181.618,160.664z"/><path d="M189.315,162.76l-2.304-6.205h1.14l1.74,5.172h0.023l1.691-5.172h1.068l-2.268,6.205H189.315z"/><path d="M198.004,162.363c-0.464,0.352-1.048,0.527-1.752,0.527c-0.496,0-0.927-0.08-1.29-0.239   c-0.364-0.159-0.67-0.384-0.918-0.672s-0.436-0.632-0.559-1.032c-0.125-0.4-0.193-0.836-0.211-1.309   c0-0.471,0.072-0.903,0.217-1.295c0.145-0.393,0.347-0.732,0.605-1.021s0.568-0.512,0.924-0.672s0.746-0.24,1.17-0.24   c0.553,0,1.01,0.114,1.374,0.344c0.364,0.228,0.656,0.518,0.876,0.869c0.221,0.353,0.372,0.735,0.456,1.151   s0.118,0.812,0.103,1.188h-4.645c-0.008,0.271,0.024,0.529,0.098,0.773c0.07,0.244,0.188,0.46,0.348,0.647s0.363,0.338,0.611,0.45   c0.248,0.111,0.541,0.168,0.877,0.168c0.432,0,0.785-0.101,1.062-0.301c0.276-0.199,0.458-0.504,0.546-0.912h1.008   C198.768,161.487,198.468,162.012,198.004,162.363z M197.758,158.379c-0.093-0.217-0.216-0.402-0.372-0.559   s-0.34-0.279-0.553-0.371c-0.211-0.093-0.445-0.14-0.701-0.14c-0.264,0-0.502,0.047-0.715,0.14   c-0.211,0.092-0.395,0.219-0.545,0.377c-0.152,0.16-0.272,0.348-0.36,0.559c-0.088,0.213-0.14,0.438-0.156,0.679h3.564   C197.903,158.824,197.85,158.596,197.758,158.379z"/><path d="M64.903,170.955v0.9h-1.236v3.852c0,0.121,0.011,0.218,0.029,0.289c0.02,0.072,0.059,0.127,0.114,0.168   c0.056,0.039,0.134,0.065,0.233,0.078c0.101,0.012,0.23,0.019,0.391,0.019h0.469v0.899h-0.781c-0.264,0-0.489-0.019-0.678-0.055   c-0.188-0.035-0.34-0.102-0.455-0.197c-0.117-0.097-0.203-0.231-0.259-0.408c-0.056-0.176-0.084-0.407-0.084-0.695v-3.948h-1.056   v-0.899h1.056v-1.859h1.021v1.859h1.236V170.955z"/><path d="M67.051,168.592v3.275h0.022c0.08-0.191,0.192-0.354,0.338-0.486c0.144-0.131,0.306-0.239,0.484-0.323   c0.182-0.084,0.368-0.146,0.564-0.187c0.195-0.039,0.386-0.061,0.568-0.061c0.408,0,0.748,0.057,1.021,0.168   c0.271,0.111,0.492,0.27,0.66,0.468c0.168,0.201,0.285,0.438,0.354,0.716c0.068,0.274,0.104,0.582,0.104,0.918v4.08h-1.021v-4.201   c0-0.383-0.111-0.688-0.336-0.912c-0.224-0.223-0.531-0.336-0.924-0.336c-0.312,0-0.582,0.049-0.811,0.145   s-0.418,0.232-0.569,0.408c-0.152,0.176-0.267,0.383-0.343,0.617c-0.075,0.236-0.113,0.494-0.113,0.775v3.504h-1.021v-8.568H67.051   z"/><path d="M77.095,176.764c-0.464,0.352-1.048,0.527-1.752,0.527c-0.496,0-0.926-0.08-1.29-0.239c-0.364-0.16-0.67-0.384-0.918-0.673   c-0.248-0.287-0.435-0.631-0.56-1.031c-0.123-0.4-0.192-0.836-0.209-1.309c0-0.472,0.071-0.903,0.217-1.295   c0.144-0.394,0.346-0.732,0.604-1.021s0.568-0.512,0.925-0.672c0.355-0.16,0.746-0.24,1.17-0.24c0.553,0,1.01,0.114,1.373,0.343   c0.364,0.228,0.656,0.519,0.877,0.869c0.221,0.353,0.371,0.736,0.455,1.152c0.084,0.415,0.118,0.812,0.104,1.188h-4.645   c-0.009,0.272,0.023,0.53,0.097,0.774c0.071,0.244,0.188,0.46,0.348,0.646c0.16,0.188,0.364,0.338,0.612,0.451   c0.246,0.111,0.54,0.168,0.876,0.168c0.432,0,0.786-0.101,1.062-0.301c0.276-0.199,0.459-0.504,0.547-0.912h1.008   C77.858,175.888,77.559,176.412,77.095,176.764z M76.849,172.779c-0.092-0.216-0.216-0.402-0.372-0.558   c-0.155-0.156-0.34-0.28-0.552-0.372s-0.446-0.139-0.702-0.139c-0.265,0-0.502,0.047-0.714,0.139s-0.395,0.219-0.546,0.378   c-0.152,0.16-0.272,0.347-0.36,0.558c-0.088,0.213-0.14,0.438-0.156,0.68h3.564C76.993,173.224,76.94,172.996,76.849,172.779z"/><path d="M80.105,170.955v0.984h0.024c0.424-0.752,1.096-1.128,2.016-1.128c0.408,0,0.748,0.056,1.021,0.168   c0.271,0.112,0.492,0.269,0.66,0.468c0.168,0.201,0.285,0.438,0.354,0.715c0.068,0.275,0.104,0.582,0.104,0.918v4.08h-1.021v-4.201   c0-0.383-0.111-0.688-0.336-0.91s-0.532-0.338-0.924-0.338c-0.312,0-0.582,0.05-0.811,0.146c-0.229,0.097-0.418,0.231-0.57,0.408   c-0.151,0.176-0.267,0.383-0.342,0.618c-0.076,0.234-0.113,0.492-0.113,0.773v3.504h-1.021v-6.205H80.105L80.105,170.955z"/><path d="M85.674,172.785c0.128-0.396,0.319-0.738,0.575-1.031c0.257-0.291,0.572-0.521,0.949-0.689   c0.375-0.168,0.808-0.252,1.295-0.252c0.496,0,0.931,0.084,1.303,0.252c0.371,0.168,0.686,0.398,0.941,0.689   c0.256,0.293,0.447,0.637,0.575,1.031c0.128,0.396,0.192,0.822,0.192,1.278s-0.064,0.88-0.192,1.272   c-0.128,0.392-0.319,0.733-0.575,1.024c-0.257,0.293-0.57,0.521-0.941,0.685c-0.372,0.164-0.807,0.246-1.303,0.246   c-0.487,0-0.92-0.082-1.295-0.246c-0.377-0.164-0.692-0.392-0.949-0.685c-0.256-0.291-0.447-0.634-0.575-1.024   c-0.128-0.394-0.192-0.816-0.192-1.272S85.546,173.182,85.674,172.785z M86.712,175.065c0.1,0.292,0.238,0.536,0.414,0.731   c0.176,0.197,0.382,0.347,0.617,0.451c0.235,0.104,0.485,0.155,0.75,0.155s0.515-0.053,0.75-0.155   c0.235-0.104,0.441-0.254,0.617-0.451c0.178-0.195,0.314-0.439,0.414-0.731c0.102-0.292,0.15-0.626,0.15-1.002   s-0.051-0.71-0.15-1.002s-0.236-0.538-0.414-0.737c-0.176-0.199-0.382-0.353-0.617-0.457c-0.235-0.104-0.485-0.156-0.75-0.156   s-0.515,0.054-0.75,0.156c-0.235,0.104-0.441,0.258-0.617,0.457s-0.314,0.445-0.414,0.737c-0.102,0.292-0.15,0.626-0.15,1.002   S86.612,174.773,86.712,175.065z"/><path d="M96.883,177.16v-0.983h-0.024c-0.216,0.384-0.492,0.666-0.828,0.846c-0.336,0.181-0.73,0.271-1.188,0.271   c-0.408,0-0.748-0.053-1.021-0.162c-0.271-0.107-0.492-0.262-0.66-0.461c-0.168-0.2-0.285-0.438-0.354-0.715   c-0.068-0.275-0.104-0.582-0.104-0.918v-4.08h1.021v4.201c0,0.383,0.112,0.688,0.336,0.911c0.225,0.224,0.532,0.337,0.924,0.337   c0.312,0,0.582-0.05,0.812-0.146c0.228-0.097,0.418-0.232,0.569-0.408s0.267-0.382,0.342-0.617   c0.076-0.235,0.113-0.493,0.113-0.774v-3.504h1.021v6.205h-0.96V177.16z"/><path d="M100.338,170.955v0.984h0.024c0.424-0.752,1.096-1.128,2.016-1.128c0.408,0,0.748,0.056,1.021,0.168   c0.271,0.112,0.491,0.269,0.659,0.468c0.168,0.201,0.286,0.438,0.354,0.715c0.067,0.275,0.103,0.582,0.103,0.918v4.08h-1.021   v-4.201c0-0.383-0.112-0.688-0.336-0.91c-0.225-0.223-0.532-0.338-0.924-0.338c-0.312,0-0.582,0.05-0.811,0.146   c-0.229,0.097-0.419,0.231-0.57,0.408c-0.152,0.176-0.267,0.383-0.342,0.618c-0.076,0.234-0.113,0.492-0.113,0.773v3.504h-1.021   v-6.205H100.338L100.338,170.955z"/><path d="M107.106,170.955v0.842h0.023c0.168-0.346,0.433-0.596,0.792-0.75c0.36-0.156,0.757-0.234,1.188-0.234   c0.479,0,0.896,0.089,1.254,0.266c0.354,0.176,0.651,0.414,0.888,0.713c0.235,0.301,0.413,0.646,0.534,1.039   c0.119,0.392,0.18,0.808,0.18,1.248c0,0.438-0.059,0.854-0.174,1.248c-0.116,0.392-0.293,0.732-0.527,1.024   c-0.236,0.292-0.531,0.521-0.889,0.688c-0.355,0.168-0.771,0.252-1.242,0.252c-0.15,0-0.321-0.016-0.51-0.047   c-0.188-0.033-0.375-0.084-0.559-0.156c-0.185-0.071-0.357-0.17-0.521-0.295c-0.164-0.123-0.303-0.276-0.414-0.461h-0.023v3.191   h-1.021v-8.568H107.106z M110.772,173.158c-0.076-0.275-0.191-0.521-0.349-0.738c-0.155-0.217-0.354-0.389-0.601-0.516   c-0.244-0.129-0.529-0.193-0.857-0.193c-0.344,0-0.637,0.068-0.876,0.205s-0.437,0.313-0.588,0.533   c-0.151,0.221-0.263,0.471-0.33,0.75c-0.067,0.281-0.103,0.564-0.103,0.854c0,0.304,0.036,0.599,0.108,0.882   c0.071,0.284,0.187,0.534,0.342,0.75c0.155,0.217,0.357,0.392,0.604,0.521c0.248,0.133,0.549,0.199,0.9,0.199   c0.353,0,0.646-0.068,0.883-0.205c0.235-0.135,0.426-0.314,0.569-0.539s0.248-0.479,0.312-0.769   c0.064-0.288,0.097-0.584,0.097-0.888C110.886,173.715,110.849,173.434,110.772,173.158z"/><path d="M114.09,170.955v1.31h0.022c0.248-0.504,0.553-0.876,0.912-1.116c0.36-0.238,0.816-0.352,1.368-0.336v1.08   c-0.407,0-0.756,0.057-1.044,0.168s-0.521,0.275-0.695,0.492c-0.176,0.216-0.305,0.479-0.385,0.785   c-0.08,0.309-0.119,0.662-0.119,1.062v2.76h-1.021v-6.205H114.09z"/><path d="M116.802,172.785c0.128-0.396,0.32-0.738,0.576-1.031c0.256-0.291,0.57-0.521,0.947-0.689s0.809-0.252,1.297-0.252   c0.494,0,0.93,0.084,1.302,0.252s0.687,0.398,0.942,0.689c0.256,0.293,0.446,0.637,0.574,1.031   c0.129,0.396,0.192,0.822,0.192,1.278s-0.063,0.88-0.192,1.272c-0.128,0.392-0.318,0.733-0.574,1.024   c-0.258,0.293-0.57,0.521-0.942,0.685s-0.808,0.246-1.302,0.246c-0.488,0-0.92-0.082-1.297-0.246s-0.691-0.392-0.947-0.685   c-0.256-0.291-0.448-0.634-0.576-1.024c-0.128-0.394-0.191-0.816-0.191-1.272S116.674,173.182,116.802,172.785z M117.84,175.065   c0.101,0.292,0.237,0.536,0.414,0.731c0.176,0.197,0.382,0.347,0.618,0.451c0.234,0.104,0.484,0.155,0.75,0.155   c0.264,0,0.514-0.053,0.75-0.155c0.234-0.104,0.44-0.254,0.617-0.451c0.176-0.195,0.313-0.439,0.414-0.731s0.149-0.626,0.149-1.002   s-0.05-0.71-0.149-1.002c-0.101-0.292-0.238-0.538-0.414-0.737c-0.177-0.199-0.383-0.353-0.617-0.457   c-0.236-0.104-0.486-0.156-0.75-0.156c-0.266,0-0.516,0.054-0.75,0.156c-0.236,0.104-0.442,0.258-0.618,0.457   c-0.177,0.199-0.313,0.445-0.414,0.737s-0.149,0.626-0.149,1.002S117.739,174.773,117.84,175.065z"/><path d="M124.512,179.146c-0.269,0.252-0.63,0.378-1.086,0.378c-0.185,0-0.356-0.016-0.517-0.048V178.6   c0.039,0.008,0.074,0.014,0.103,0.018s0.058,0.006,0.09,0.006h0.216c0.225,0,0.377-0.062,0.457-0.186   c0.079-0.124,0.119-0.346,0.119-0.666v-6.816h1.02v6.984C124.913,178.492,124.78,178.894,124.512,179.146z M123.894,169.84v-1.248   h1.02v1.248H123.894z"/><path d="M130.89,176.764c-0.464,0.352-1.048,0.527-1.752,0.527c-0.496,0-0.926-0.08-1.29-0.239c-0.364-0.16-0.67-0.384-0.918-0.673   c-0.248-0.287-0.435-0.631-0.56-1.031c-0.123-0.4-0.192-0.836-0.209-1.309c0-0.472,0.072-0.903,0.217-1.295   c0.144-0.394,0.346-0.732,0.605-1.021c0.258-0.289,0.567-0.512,0.924-0.672c0.355-0.16,0.746-0.24,1.17-0.24   c0.553,0,1.01,0.114,1.373,0.343c0.364,0.228,0.656,0.519,0.877,0.869c0.221,0.353,0.371,0.736,0.455,1.152   c0.084,0.415,0.119,0.812,0.104,1.188h-4.645c-0.008,0.272,0.023,0.53,0.097,0.774c0.071,0.244,0.188,0.46,0.348,0.646   c0.16,0.188,0.364,0.338,0.612,0.451c0.247,0.111,0.54,0.168,0.876,0.168c0.432,0,0.786-0.101,1.062-0.301   c0.276-0.199,0.459-0.504,0.547-0.912h1.008C131.653,175.888,131.354,176.412,130.89,176.764z M130.644,172.779   c-0.092-0.216-0.216-0.402-0.372-0.558c-0.155-0.156-0.34-0.28-0.552-0.372s-0.445-0.139-0.702-0.139   c-0.264,0-0.502,0.047-0.714,0.139s-0.395,0.219-0.546,0.378c-0.152,0.16-0.272,0.347-0.36,0.558   c-0.088,0.213-0.14,0.438-0.156,0.68h3.564C130.788,173.224,130.735,172.996,130.644,172.779z"/><path d="M136.649,172.035c-0.256-0.215-0.6-0.324-1.031-0.324c-0.367,0-0.676,0.068-0.924,0.205s-0.445,0.316-0.595,0.539   c-0.147,0.226-0.254,0.482-0.317,0.774s-0.097,0.595-0.097,0.906c0,0.288,0.034,0.567,0.103,0.84   c0.067,0.272,0.175,0.515,0.317,0.726c0.146,0.213,0.332,0.383,0.564,0.51c0.231,0.129,0.508,0.193,0.827,0.193   c0.504,0,0.897-0.133,1.183-0.396s0.458-0.638,0.522-1.116h1.043c-0.111,0.77-0.397,1.359-0.857,1.775s-1.086,0.623-1.878,0.623   c-0.472,0-0.89-0.076-1.254-0.228s-0.668-0.368-0.912-0.647s-0.429-0.613-0.552-1.002c-0.125-0.389-0.188-0.813-0.188-1.277   c0-0.465,0.061-0.896,0.182-1.303c0.119-0.404,0.302-0.756,0.545-1.057c0.244-0.3,0.551-0.535,0.918-0.707   c0.369-0.172,0.797-0.259,1.285-0.259c0.352,0,0.682,0.042,0.988,0.126c0.309,0.084,0.58,0.215,0.816,0.391s0.43,0.397,0.582,0.666   c0.15,0.269,0.248,0.586,0.287,0.953h-1.055C137.075,172.556,136.907,172.252,136.649,172.035z"/><path d="M142.036,170.955v0.9h-1.235v3.852c0,0.121,0.011,0.218,0.03,0.289c0.019,0.072,0.058,0.127,0.113,0.168   c0.057,0.039,0.135,0.065,0.233,0.078c0.101,0.012,0.229,0.019,0.392,0.019h0.467v0.899h-0.779c-0.264,0-0.49-0.019-0.678-0.055   c-0.188-0.035-0.34-0.102-0.457-0.197c-0.115-0.097-0.201-0.231-0.258-0.408c-0.056-0.176-0.084-0.407-0.084-0.695v-3.948h-1.056   v-0.899h1.056v-1.859h1.021v1.859h1.235V170.955z"/><path d="M144.726,175.828v1.332h-1.332v-1.332H144.726z"/><path d="M150.208,172.035c-0.256-0.215-0.6-0.324-1.03-0.324c-0.368,0-0.677,0.068-0.925,0.205s-0.445,0.316-0.594,0.539   c-0.147,0.226-0.254,0.482-0.317,0.774s-0.097,0.595-0.097,0.906c0,0.288,0.033,0.567,0.103,0.84   c0.067,0.272,0.174,0.515,0.317,0.726c0.145,0.213,0.332,0.383,0.563,0.51c0.231,0.129,0.509,0.193,0.828,0.193   c0.504,0,0.897-0.133,1.183-0.396s0.457-0.638,0.521-1.116h1.044c-0.112,0.77-0.397,1.359-0.858,1.775   c-0.459,0.416-1.086,0.623-1.877,0.623c-0.473,0-0.891-0.076-1.254-0.228c-0.365-0.151-0.669-0.368-0.912-0.647   c-0.244-0.279-0.429-0.613-0.553-1.002s-0.188-0.813-0.188-1.277c0-0.465,0.062-0.896,0.182-1.303   c0.12-0.404,0.302-0.756,0.546-1.057c0.244-0.3,0.55-0.535,0.918-0.707s0.796-0.259,1.284-0.259c0.352,0,0.682,0.042,0.988,0.126   c0.31,0.084,0.58,0.215,0.816,0.391s0.43,0.397,0.582,0.666c0.151,0.269,0.248,0.586,0.288,0.953h-1.056   C150.634,172.556,150.466,172.252,150.208,172.035z"/><path d="M152.801,172.785c0.128-0.396,0.319-0.738,0.576-1.031c0.256-0.291,0.571-0.521,0.948-0.689   c0.375-0.168,0.808-0.252,1.295-0.252c0.496,0,0.931,0.084,1.303,0.252s0.686,0.398,0.941,0.689   c0.256,0.293,0.447,0.637,0.576,1.031c0.127,0.396,0.191,0.822,0.191,1.278s-0.064,0.88-0.191,1.272   c-0.129,0.392-0.32,0.733-0.576,1.024c-0.256,0.293-0.569,0.521-0.941,0.685s-0.807,0.246-1.303,0.246   c-0.487,0-0.92-0.082-1.295-0.246c-0.377-0.164-0.692-0.392-0.948-0.685c-0.257-0.291-0.448-0.634-0.576-1.024   c-0.128-0.394-0.192-0.816-0.192-1.272S152.673,173.182,152.801,172.785z M153.839,175.065c0.1,0.292,0.238,0.536,0.414,0.731   c0.176,0.197,0.382,0.347,0.617,0.451c0.235,0.104,0.485,0.155,0.75,0.155s0.515-0.053,0.75-0.155   c0.235-0.104,0.441-0.254,0.617-0.451c0.178-0.195,0.314-0.439,0.414-0.731c0.102-0.292,0.15-0.626,0.15-1.002   s-0.05-0.71-0.15-1.002c-0.1-0.292-0.236-0.538-0.414-0.737c-0.176-0.199-0.382-0.353-0.617-0.457   c-0.235-0.104-0.485-0.156-0.75-0.156s-0.515,0.054-0.75,0.156c-0.235,0.104-0.441,0.258-0.617,0.457s-0.314,0.445-0.414,0.737   c-0.102,0.292-0.15,0.626-0.15,1.002S153.739,174.773,153.839,175.065z"/><path d="M160.792,170.955v0.912h0.023c0.465-0.703,1.133-1.056,2.004-1.056c0.385,0,0.732,0.08,1.045,0.24   c0.312,0.159,0.531,0.433,0.66,0.815c0.207-0.336,0.48-0.597,0.821-0.779c0.34-0.185,0.714-0.276,1.122-0.276   c0.312,0,0.594,0.034,0.846,0.103c0.252,0.069,0.469,0.174,0.648,0.317s0.318,0.33,0.42,0.558c0.1,0.229,0.148,0.504,0.148,0.822   v4.549h-1.02v-4.067c0-0.191-0.018-0.372-0.048-0.54c-0.032-0.168-0.093-0.312-0.181-0.438c-0.088-0.123-0.211-0.223-0.367-0.293   c-0.154-0.072-0.356-0.109-0.604-0.109c-0.504,0-0.899,0.145-1.188,0.433c-0.286,0.288-0.432,0.672-0.432,1.151v3.865h-1.02v-4.068   c0-0.2-0.02-0.385-0.055-0.553c-0.037-0.168-0.099-0.313-0.187-0.438s-0.206-0.22-0.354-0.288   c-0.146-0.066-0.338-0.104-0.568-0.104c-0.297,0-0.551,0.062-0.764,0.182c-0.211,0.12-0.383,0.266-0.516,0.434   c-0.132,0.168-0.229,0.342-0.288,0.521c-0.06,0.18-0.09,0.33-0.09,0.45v3.863h-1.021v-6.205H160.792z"/><path d="M173.513,168.388l-3.552,8.964h-0.864l3.54-8.964H173.513z"/><path d="M175.145,168.592v5.076l2.832-2.713h1.368l-2.46,2.256l2.64,3.949h-1.296l-2.124-3.24l-0.96,0.888v2.353h-1.021v-8.567   L175.145,168.592L175.145,168.592z"/><path d="M181.217,170.955v1.31h0.022c0.248-0.504,0.553-0.876,0.912-1.116c0.36-0.238,0.816-0.352,1.368-0.336v1.08   c-0.407,0-0.756,0.057-1.044,0.168s-0.521,0.275-0.695,0.492c-0.176,0.216-0.305,0.479-0.385,0.785   c-0.08,0.309-0.119,0.662-0.119,1.062v2.76h-1.021v-6.205H181.217z"/><path d="M186.725,177.988c-0.12,0.303-0.237,0.559-0.354,0.768c-0.114,0.207-0.243,0.379-0.383,0.511   c-0.141,0.132-0.297,0.229-0.469,0.288s-0.369,0.09-0.594,0.09c-0.12,0-0.24-0.008-0.359-0.023   c-0.121-0.017-0.236-0.043-0.349-0.084v-0.937c0.088,0.04,0.188,0.073,0.306,0.103c0.116,0.027,0.215,0.043,0.295,0.043   c0.207,0,0.381-0.052,0.521-0.15c0.14-0.1,0.246-0.242,0.316-0.426l0.42-1.045l-2.459-6.168h1.151l1.812,5.076h0.024l1.74-5.076   h1.08L186.725,177.988z"/><path d="M191.345,170.955v0.842h0.023c0.168-0.346,0.433-0.596,0.791-0.75c0.36-0.156,0.758-0.234,1.188-0.234   c0.479,0,0.897,0.089,1.254,0.266c0.354,0.176,0.652,0.414,0.888,0.713c0.236,0.301,0.414,0.646,0.535,1.039   c0.119,0.392,0.18,0.808,0.18,1.248c0,0.438-0.059,0.854-0.174,1.248c-0.117,0.392-0.293,0.732-0.527,1.024   c-0.236,0.292-0.532,0.521-0.889,0.688c-0.355,0.168-0.771,0.252-1.242,0.252c-0.151,0-0.321-0.016-0.51-0.047   c-0.188-0.033-0.375-0.084-0.559-0.156c-0.186-0.071-0.357-0.17-0.521-0.295c-0.164-0.123-0.303-0.276-0.414-0.461h-0.023v3.191   h-1.021v-8.568H191.345z M195.011,173.158c-0.076-0.275-0.191-0.521-0.35-0.738c-0.154-0.217-0.354-0.389-0.6-0.516   c-0.244-0.129-0.529-0.193-0.857-0.193c-0.344,0-0.637,0.068-0.877,0.205c-0.238,0.137-0.436,0.313-0.588,0.533   c-0.15,0.221-0.262,0.471-0.33,0.75c-0.066,0.281-0.102,0.564-0.102,0.854c0,0.304,0.036,0.599,0.107,0.882   c0.072,0.284,0.187,0.534,0.343,0.75c0.155,0.217,0.356,0.392,0.604,0.521c0.248,0.133,0.549,0.199,0.9,0.199   s0.646-0.068,0.882-0.205c0.236-0.135,0.427-0.314,0.57-0.539s0.248-0.479,0.312-0.769c0.064-0.288,0.096-0.584,0.096-0.888   C195.124,173.715,195.087,173.434,195.011,173.158z"/><path d="M200.057,170.955v0.9h-1.235v3.852c0,0.121,0.01,0.218,0.029,0.289c0.02,0.072,0.059,0.127,0.114,0.168   c0.056,0.039,0.134,0.065,0.233,0.078c0.101,0.012,0.229,0.019,0.391,0.019h0.468v0.899h-0.78c-0.264,0-0.49-0.019-0.678-0.055   c-0.188-0.035-0.34-0.102-0.456-0.197c-0.116-0.097-0.202-0.231-0.258-0.408c-0.056-0.176-0.084-0.407-0.084-0.695v-3.948h-1.056   v-0.899h1.056v-1.859h1.021v1.859h1.235V170.955z"/><path d="M201.04,172.785c0.127-0.396,0.32-0.738,0.576-1.031c0.256-0.291,0.57-0.521,0.947-0.689s0.809-0.252,1.297-0.252   c0.494,0,0.93,0.084,1.301,0.252c0.373,0.168,0.687,0.398,0.942,0.689c0.257,0.293,0.447,0.637,0.575,1.031   c0.128,0.396,0.191,0.822,0.191,1.278s-0.063,0.88-0.191,1.272c-0.128,0.392-0.318,0.733-0.575,1.024   c-0.257,0.293-0.569,0.521-0.942,0.685c-0.371,0.164-0.807,0.246-1.301,0.246c-0.488,0-0.92-0.082-1.297-0.246   s-0.691-0.392-0.947-0.685c-0.256-0.291-0.449-0.634-0.576-1.024c-0.129-0.394-0.192-0.816-0.192-1.272   S200.911,173.182,201.04,172.785z M202.077,175.065c0.101,0.292,0.238,0.536,0.414,0.731c0.176,0.197,0.383,0.347,0.619,0.451   c0.234,0.104,0.484,0.155,0.75,0.155c0.264,0,0.514-0.053,0.75-0.155c0.234-0.104,0.44-0.254,0.616-0.451   c0.177-0.195,0.313-0.439,0.414-0.731s0.149-0.626,0.149-1.002s-0.049-0.71-0.149-1.002s-0.237-0.538-0.414-0.737   c-0.176-0.199-0.382-0.353-0.616-0.457c-0.236-0.104-0.486-0.156-0.75-0.156c-0.266,0-0.516,0.054-0.75,0.156   c-0.236,0.104-0.443,0.258-0.619,0.457s-0.313,0.445-0.414,0.737s-0.149,0.626-0.149,1.002S201.978,174.773,202.077,175.065z"/><path d="M209.032,170.955v0.984h0.023c0.424-0.752,1.096-1.128,2.016-1.128c0.408,0,0.748,0.056,1.021,0.168   c0.271,0.112,0.492,0.269,0.66,0.468c0.168,0.201,0.285,0.438,0.354,0.715c0.068,0.275,0.104,0.582,0.104,0.918v4.08h-1.021v-4.201   c0-0.383-0.111-0.688-0.336-0.91c-0.224-0.223-0.531-0.338-0.924-0.338c-0.312,0-0.582,0.05-0.811,0.146   c-0.229,0.097-0.418,0.231-0.569,0.408c-0.152,0.176-0.267,0.383-0.343,0.618c-0.075,0.234-0.113,0.492-0.113,0.773v3.504h-1.021   v-6.205H209.032L209.032,170.955z"/><path d="M215.825,168.592v8.568h-1.021v-8.568H215.825z"/><path d="M217.264,172.785c0.128-0.396,0.319-0.738,0.576-1.031c0.256-0.291,0.571-0.521,0.948-0.689   c0.375-0.168,0.808-0.252,1.295-0.252c0.496,0,0.931,0.084,1.303,0.252s0.686,0.398,0.941,0.689   c0.256,0.293,0.447,0.637,0.576,1.031c0.127,0.396,0.191,0.822,0.191,1.278s-0.064,0.88-0.191,1.272   c-0.129,0.392-0.32,0.733-0.576,1.024c-0.256,0.293-0.569,0.521-0.941,0.685s-0.807,0.246-1.303,0.246   c-0.487,0-0.92-0.082-1.295-0.246c-0.377-0.164-0.692-0.392-0.948-0.685c-0.257-0.291-0.448-0.634-0.576-1.024   c-0.128-0.394-0.192-0.816-0.192-1.272S217.136,173.182,217.264,172.785z M218.302,175.065c0.1,0.292,0.238,0.536,0.414,0.731   c0.176,0.197,0.382,0.347,0.617,0.451c0.236,0.104,0.486,0.155,0.75,0.155c0.265,0,0.515-0.053,0.75-0.155   c0.236-0.104,0.441-0.254,0.617-0.451c0.178-0.195,0.314-0.439,0.414-0.731c0.102-0.292,0.15-0.626,0.15-1.002   s-0.05-0.71-0.15-1.002c-0.1-0.292-0.236-0.538-0.414-0.737c-0.176-0.199-0.381-0.353-0.617-0.457   c-0.235-0.104-0.485-0.156-0.75-0.156c-0.264,0-0.514,0.054-0.75,0.156c-0.235,0.104-0.441,0.258-0.617,0.457   s-0.314,0.445-0.414,0.737c-0.102,0.292-0.15,0.626-0.15,1.002S218.2,174.773,218.302,175.065z"/><path d="M225.999,177.16l-2.303-6.205h1.14l1.739,5.172h0.024l1.69-5.172h1.068l-2.268,6.205H225.999z"/><path d="M234.688,176.764c-0.464,0.352-1.048,0.527-1.752,0.527c-0.496,0-0.926-0.08-1.29-0.239   c-0.364-0.16-0.67-0.384-0.918-0.673c-0.248-0.287-0.435-0.631-0.559-1.031s-0.193-0.836-0.21-1.309   c0-0.472,0.072-0.903,0.217-1.295c0.145-0.394,0.346-0.732,0.605-1.021c0.258-0.289,0.567-0.512,0.924-0.672   c0.355-0.16,0.746-0.24,1.17-0.24c0.553,0,1.01,0.114,1.373,0.343c0.365,0.228,0.656,0.519,0.877,0.869   c0.221,0.353,0.371,0.736,0.455,1.152c0.084,0.415,0.119,0.812,0.104,1.188h-4.645c-0.008,0.272,0.023,0.53,0.097,0.774   c0.071,0.244,0.188,0.46,0.349,0.646c0.159,0.188,0.363,0.338,0.611,0.451c0.247,0.111,0.54,0.168,0.876,0.168   c0.433,0,0.786-0.101,1.062-0.301c0.276-0.199,0.459-0.504,0.547-0.912h1.008C235.452,175.888,235.153,176.412,234.688,176.764z    M234.442,172.779c-0.092-0.216-0.216-0.402-0.371-0.558c-0.156-0.156-0.34-0.28-0.553-0.372c-0.212-0.092-0.445-0.139-0.701-0.139   c-0.265,0-0.502,0.047-0.715,0.139c-0.212,0.092-0.395,0.219-0.546,0.378c-0.151,0.16-0.272,0.347-0.36,0.558   c-0.088,0.213-0.14,0.438-0.156,0.68h3.564C234.588,173.224,234.534,172.996,234.442,172.779z"/></g></svg>