<svg xmlns="http://www.w3.org/2000/svg" xmlns:xlink="http://www.w3.org/1999/xlink" version="1.1" x="0px" y="0px" viewBox="0 0 100 125" enable-background="new 0 0 100 100" xml:space="preserve" fill="#ACA8B6"><path d="M50.6,64.2l-44-44c-1.3-1.3-1.3-3.5,0-4.9c1.3-1.3,3.5-1.3,4.9,0l39.1,39.1l39.2-39.2c1.3-1.3,3.5-1.3,4.9,0  c1.3,1.3,1.3,3.5,0,4.9L50.6,64.2z"/><path d="M50.6,87.1l-44-44c-1.3-1.3-1.3-3.5,0-4.9c1.3-1.3,3.5-1.3,4.9,0l39.1,39.1l39.2-39.2c1.3-1.3,3.5-1.3,4.9,0  c1.3,1.3,1.3,3.5,0,4.9L50.6,87.1z"/></svg>