<svg xmlns="http://www.w3.org/2000/svg" xmlns:xlink="http://www.w3.org/1999/xlink" version="1.1" x="0px" y="0px" viewBox="0 0 100 125" enable-background="new 0 0 100 100" xml:space="preserve"><g><path fill="#5A5353" d="M36.564,22.88c-0.72,0-1.08,0.84-0.6,1.38c1.5,1.56,1.86,2.76,1.86,3.84c-0.06,1.14-0.54,2.22-1.08,3.42   l0.06-0.06c-1.86,3.42-0.66,6.72,0.78,9.12c0.6,0.9,1.98,0.06,1.38-0.84c-1.32-2.22-2.28-4.68-0.78-7.5c0,0,0,0,0-0.06   c0.6-1.2,1.2-2.52,1.2-4.02c0.06-1.56-0.6-3.24-2.22-5.04C36.984,23,36.805,22.88,36.564,22.88L36.564,22.88z M48.504,22.88   c-0.72,0-1.08,0.84-0.6,1.38c1.5,1.56,1.86,2.76,1.86,3.84c0,1.14-0.54,2.22-1.08,3.42l0.06-0.06c-1.86,3.42-0.66,6.72,0.84,9.12   c0.54,0.9,1.92,0.06,1.32-0.84c-1.32-2.22-2.28-4.68-0.78-7.5c0,0,0.06,0,0.06-0.06c0.54-1.2,1.14-2.52,1.14-4.02   c0.061-1.56-0.6-3.24-2.22-5.04C48.925,23,48.745,22.88,48.504,22.88L48.504,22.88z M60.505,22.88c-0.721,0-1.141,0.84-0.601,1.38   c1.44,1.56,1.8,2.76,1.8,3.84c0,1.14-0.479,2.22-1.02,3.42v-0.06c-1.86,3.42-0.66,6.72,0.84,9.12c0.54,0.9,1.92,0.06,1.38-0.84   c-1.38-2.22-2.34-4.68-0.84-7.5c0.061,0,0.061,0,0.061-0.06c0.54-1.2,1.14-2.52,1.199-4.02c0-1.56-0.6-3.24-2.279-5.04   C60.925,23,60.685,22.88,60.505,22.88L60.505,22.88z M82.284,30.62c-0.96,0-1.92,0.36-2.64,1.08c-0.54,0.54-2.46,2.76-4.86,5.52   c-2.279,2.7-4.859,5.82-6.659,8.28h-53.34l0,0c-0.54,0-0.96,0.6-0.72,1.14c5.46,12.12,19.68,20.101,35.46,20.101   c15.84,0,30-7.98,35.46-20.101c0.24-0.54-0.18-1.14-0.72-1.14h-9.36c1.98-1.56,3.96-3.24,5.7-4.68c2.22-1.92,3.84-3.42,4.32-3.84   c1.439-1.44,1.439-3.84,0-5.28C84.204,30.98,83.244,30.62,82.284,30.62L82.284,30.62z M82.284,32.24c0.54,0,1.08,0.18,1.5,0.6   c0.841,0.84,0.841,2.16,0,3c-0.239,0.24-2.04,1.86-4.26,3.72c-2.16,1.86-4.8,4.08-7.14,5.94h-2.28c1.74-2.22,3.9-4.92,5.88-7.26   c2.4-2.76,4.5-5.1,4.8-5.4C81.204,32.42,81.744,32.24,82.284,32.24L82.284,32.24z M16.165,47.12h52.32h0.061h3.96   c0.12,0,0.18,0,0.239,0h10.141c-5.521,10.8-18.601,18-33.36,18.06C34.765,65.12,21.685,57.92,16.165,47.12L16.165,47.12z    M24.445,49.34c-0.54,0-0.9,0.6-0.66,1.14c3.48,7.56,12.54,12.419,22.62,12.48c1.08,0,1.08-1.62,0-1.62   c-9.54,0-18-4.68-21.18-11.58C25.104,49.46,24.805,49.28,24.445,49.34L24.445,49.34z M30.504,70.52c-1.68,0-3.06,1.38-3.06,3.12V74   c0,1.68,1.38,3.12,3.06,3.12h38.041c1.68,0,3.06-1.44,3.06-3.12v-0.36c0-1.74-1.38-3.12-3.06-3.12H30.504L30.504,70.52z    M30.504,72.14h38.041c0.84,0,1.5,0.66,1.5,1.5V74c0,0.84-0.66,1.5-1.5,1.5H30.504c-0.84,0-1.44-0.66-1.44-1.5v-0.36   C29.064,72.8,29.665,72.14,30.504,72.14L30.504,72.14z"/></g></svg>