<svg xmlns="http://www.w3.org/2000/svg" xmlns:xlink="http://www.w3.org/1999/xlink" version="1.1" x="0px" y="0px" viewBox="0 0 60 75" enable-background="new 0 0 60 60" xml:space="preserve"><g><g><g><g><path d="M59.3587036,9.4978437c-0.2827148-0.2060547-0.6601562-0.2548828-1.0302734-0.1308594l-18.588562,6.0703125H20.260252      l-3.6124878-1.1796875c-0.2089844-0.0703125-0.4355469,0.0458984-0.5043945,0.2558594      c-0.0683594,0.2099609,0.0463867,0.4355469,0.2563477,0.5039062l3.3994141,1.1101084v9.8510742      c-0.4130859,0.291748-0.770752,0.6400146-1.0170898,1.0192871l-5.163085,7.9472656      c-0.5527344,0.8505859-1.8168945,1.8876953-2.7602539,2.2646484l-9.8618164,3.9338989V10.4363203      c0-0.1347656,0.0405273-0.2382812,0.1142578-0.2910156c0.0737305-0.0537109,0.1850586-0.0585938,0.3125-0.0185547      l3.7207031,1.2148438c0.2099609,0.0683594,0.4355469-0.0458984,0.5043945-0.2558594      c0.0683594-0.2099609-0.0463867-0.4355469-0.2563477-0.5039062L1.6716909,9.3669844      c-0.3706055-0.1220703-0.746582-0.0742188-1.0302734,0.1308594c-0.2822266,0.2041016-0.4443359,0.546875-0.4443359,0.9384766      v38.8046875c0,0.7236328,0.5385742,1.4658203,1.2265625,1.6904297l18.6513672,6.0898438      c0.0410156,0.0136719,0.0830078,0.0205078,0.1240234,0.0205078h19.6020527c0.0410156,0,0.0830078-0.0068359,0.1240234-0.0205078      l18.6513672-6.0898438c0.6879883-0.2246094,1.2265625-0.9667969,1.2265625-1.6904297V10.4363203      C59.8030396,10.0447187,59.6409302,9.7019453,59.3587036,9.4978437z M39.4011841,56.2410088h-18.802248V26.4208183      c0.5196533-0.2955322,1.104126-0.4868774,1.6098633-0.4884033l6.3261719-0.0205078      c1.2412109-0.0048828,2.7529297-0.8173828,3.440918-1.8496094l5.2161274-7.8242188h2.2091675V56.2410088z       M20.5989361,16.2380791h15.6315327l-4.9205952,7.3808594c-0.5366211,0.8056641-1.809082,1.4892578-2.777832,1.4921875      l-6.3261719,0.0205078c-0.517334,0.0020142-1.0776978,0.1508789-1.6069336,0.392395V16.2380791z M0.9968863,49.2410088      v-7.2366943l10.1586914-4.0523682c1.0893555-0.4345703,2.4956055-1.5888672,3.1342773-2.5712891l5.163085-7.9472656      c0.0924683-0.142395,0.2138672-0.2785034,0.3461914-0.4102783V56.090435L1.6716909,50.1716728      C1.3123159,50.0535088,0.9968863,49.6189384,0.9968863,49.2410088z M59.0032349,49.2410088      c0,0.3779297-0.3154297,0.8125-0.6748047,0.9306641L40.2009888,56.090435V16.1274834L58.5764771,10.12675      c0.128418-0.0400391,0.2387695-0.0351562,0.3125,0.0185547c0.0737305,0.0527344,0.1142578,0.15625,0.1142578,0.2910156      V49.2410088z"/></g></g><g><g><path d="M14.7185659,8.2156172c0-1.5888672-1.2924805-2.8818359-2.8808594-2.8818359      c-1.5888672,0-2.8813477,1.2929688-2.8813477,2.8818359s1.2924805,2.8818359,2.8813477,2.8818359      C13.4260855,11.0974531,14.7185659,9.8044844,14.7185659,8.2156172z M9.7561636,8.2156172      c0-1.1474609,0.9335938-2.0810547,2.081543-2.0810547c1.1474609,0,2.0810547,0.9335938,2.0810547,2.0810547      s-0.9335938,2.0810547-2.0810547,2.0810547C10.6897573,10.2966719,9.7561636,9.3630781,9.7561636,8.2156172z"/></g></g><g><g><path d="M11.821105,16.9910088h0.0317383c0.5527344,0,0.9477539-0.4599609,0.9575195-0.4707031      c2.1235352-2.4414072,4.3891592-5.29004,4.3891592-8.1992197c0-2.9570312-2.4057608-5.3632812-5.362792-5.3632812      s-5.3623047,2.40625-5.3623047,5.3632812c0,2.9082031,2.265625,5.7568359,4.3666992,8.1708994      C10.9124136,16.5906181,11.3118277,16.9910088,11.821105,16.9910088z M11.83673,3.7585859      c2.5161133,0,4.5629873,2.046875,4.5629873,4.5625c0,2.6328125-2.1645498,5.3417969-4.1918936,7.6728516      c-0.0585938,0.0644541-0.2216797,0.19629-0.3549805,0.19629H11.821105c-0.1333008,0-0.2958984-0.1308594-0.3540039-0.1953135      C9.4387808,13.6619062,7.27423,10.9529219,7.27423,8.3210859C7.27423,5.8054609,9.321105,3.7585859,11.83673,3.7585859z"/></g></g><g><g><path d="M49.602356,34.0349541c-1.5883789,0-2.8808594,1.2929688-2.8808594,2.8808594      c0,1.5888672,1.2924805,2.8818359,2.8808594,2.8818359s2.8808594-1.2929688,2.8808594-2.8818359      C52.4832153,35.3279228,51.1907349,34.0349541,49.602356,34.0349541z M49.602356,38.9968681      c-1.1474609,0-2.0810547-0.9335938-2.0810547-2.0810547s0.9335938-2.0800781,2.0810547-2.0800781      s2.0810547,0.9326172,2.0810547,2.0800781S50.7498169,38.9968681,49.602356,38.9968681z"/></g></g><g><g><path d="M49.6013794,31.6589775c-2.956543,0-5.3618164,2.4052734-5.3618164,5.3623047      c0,2.9082031,2.2651367,5.7578125,4.3891602,8.2001953c0.0419922,0.0488281,0.4257812,0.4707031,0.9570312,0.4707031h0.0317383      c0.53125,0,0.9155273-0.421875,0.9580078-0.4707031c2.1235352-2.4423828,4.3891602-5.2910156,4.3891602-8.2001953      C54.9646606,34.0642509,52.5588989,31.6589775,49.6013794,31.6589775z M49.9754028,44.6921806      c-0.059082,0.0654297-0.2246094,0.1992188-0.3579102,0.1992188h-0.0317383      c-0.1333008,0-0.2978516-0.1337891-0.3540039-0.1953125c-2.0283203-2.3330078-4.1923828-5.0429688-4.1923828-7.6748047      c0-2.515625,2.0463867-4.5615234,4.5620117-4.5615234c2.5161133,0,4.5634766,2.0458984,4.5634766,4.5615234      C54.164856,39.6540947,52.0003052,42.3630791,49.9754028,44.6921806z"/></g></g></g></g></svg>