<svg xmlns:x="http://ns.adobe.com/Extensibility/1.0/" xmlns:i="http://ns.adobe.com/AdobeIllustrator/10.0/" xmlns:graph="http://ns.adobe.com/Graphs/1.0/" xmlns="http://www.w3.org/2000/svg" xmlns:xlink="http://www.w3.org/1999/xlink" version="1.1" x="0px" y="0px" viewBox="0 0 100 125" enable-background="new 0 0 100 100" xml:space="preserve"><metadata><sfw xmlns="http://ns.adobe.com/SaveForWeb/1.0/"><slices/><sliceSourceBounds y="-8142" x="-8141" width="16383" height="16383" bottomLeftOrigin="true"/></sfw></metadata><g><g><path d="M42.157,62h16.491v-5.22H42.157V62z M44.157,58.78h12.491V60H44.157V58.78z"/><path d="M42.157,48.625v6.697h16.491v-4.563c2.403-1.033,4.025-3.441,4.025-6.098c0-3.501-2.726-6.377-6.166-6.619    C55.479,35.629,53.067,34,50.403,34c-1.735,0-3.381,0.673-4.614,1.868c-0.594-0.171-1.206-0.258-1.827-0.258    c-3.659,0-6.635,2.977-6.635,6.636C37.327,45.226,39.351,47.829,42.157,48.625z M43.962,37.61c0.597,0,1.182,0.115,1.74,0.341    l0.676,0.274l0.467-0.56C47.729,36.607,49.026,36,50.403,36c2.039,0,3.866,1.365,4.443,3.32l0.222,0.75l0.971-0.045    c2.557,0,4.636,2.08,4.636,4.636c0,2.034-1.361,3.86-3.311,4.44l-0.715,0.213v4.008H44.157v-6.372l-0.858-0.123    c-2.265-0.325-3.973-2.294-3.973-4.582C39.327,39.689,41.406,37.61,43.962,37.61z"/><path d="M66,16.5v-9h-2c0,4.257-16.017,9-39,9h-1v72h52v-72H66z M64,11.095V16.5H49.036C55.771,15.255,61.225,13.442,64,11.095z     M74,86.5H26v-68h48V86.5z"/></g></g></svg>