<svg xmlns="http://www.w3.org/2000/svg" xmlns:xlink="http://www.w3.org/1999/xlink" version="1.1" x="0px" y="0px" viewBox="0 0 100 125" enable-background="new 0 0 100 100" xml:space="preserve"><path fill="#000000" d="M87.8,33.8H76.7H23.3H12.3c-0.6,0-1,0.4-1,1v37.8c0,0,0,0,0,0c0,0.1,0,0.1,0,0.2  c0,0.1,0,0.1,0.1,0.2c0,0,0,0,0,0c0,0.1,0.1,0.2,0.2,0.3c0,0,0,0,0.1,0c0.1,0.1,0.1,0.1,0.2,0.2c0,0,0.1,0,0.1,0  c0.1,0,0.2,0.1,0.3,0.1c0,0,0,0,0,0l0,0c0,0,0,0,0,0c0,0,0,0,0,0c0.1,0,0.3,0,0.4-0.1c0,0,0,0,0,0l6.9-3.4v3.8c0,0,0,0,0,0  c0,0.1,0,0.1,0,0.2c0,0.1,0,0.1,0.1,0.2c0,0,0,0,0,0c0,0.1,0.1,0.2,0.2,0.3c0,0,0,0,0.1,0c0.1,0.1,0.1,0.1,0.2,0.2c0,0,0.1,0,0.1,0  c0.1,0,0.2,0.1,0.3,0.1c0,0,0,0,0,0l0,0l0,0c0,0,0,0,0,0c0.1,0,0.3,0,0.4-0.1c0,0,0,0,0,0l0.9-0.5v12.1c0,0.6,0.4,1,1,1h4.2  c0.6,0,1-0.4,1-1V75.6c0,0.1,0.1,0.1,0.1,0.2c0,0,0,0,0.1,0c0.1,0.1,0.1,0.1,0.2,0.2c0,0,0.1,0,0.1,0c0.1,0,0.2,0.1,0.3,0.1  c0,0,0,0,0,0c0,0,0,0,0,0l0,0c0,0,0,0,0,0c0.1,0,0.3,0,0.4-0.1c0,0,0,0,0,0l6.9-3.4v3.8c0,0,0,0,0,0c0,0.1,0,0.1,0,0.2  c0,0.1,0,0.1,0.1,0.2c0,0,0,0,0,0c0,0.1,0.1,0.2,0.2,0.3c0,0,0,0,0.1,0c0.1,0.1,0.1,0.1,0.2,0.2c0,0,0.1,0,0.1,0  c0.1,0,0.2,0.1,0.3,0.1c0,0,0,0,0,0c0,0,0,0,0,0l0,0c0,0,0,0,0,0c0.1,0,0.3,0,0.4-0.1c0,0,0,0,0,0l7.7-3.8l3.3,3.3  c0.1,0.1,0.1,0.1,0.2,0.1c0,0,0.1,0.1,0.1,0.1c0.1,0.1,0.3,0.1,0.4,0.1c0.1,0,0.2,0,0.4-0.1c0,0,0.1,0,0.1-0.1  c0.1,0,0.1-0.1,0.2-0.1l3.8-3.5l8,3.9c0,0,0,0,0,0c0.1,0.1,0.3,0.1,0.4,0.1c0,0,0,0,0,0l0,0c0,0,0,0,0,0c0,0,0,0,0,0  c0.1,0,0.2,0,0.3-0.1c0,0,0.1,0,0.1,0c0.1,0,0.2-0.1,0.2-0.2c0,0,0,0,0.1,0c0.1-0.1,0.1-0.2,0.2-0.3c0,0,0,0,0,0  c0-0.1,0-0.1,0.1-0.2c0-0.1,0-0.1,0-0.2c0,0,0,0,0,0v-3.8l6.9,3.4c0,0,0,0,0,0c0.1,0.1,0.3,0.1,0.4,0.1c0,0,0,0,0,0l0,0c0,0,0,0,0,0  c0,0,0,0,0,0c0.1,0,0.2,0,0.3-0.1c0,0,0.1,0,0.1,0c0.1,0,0.2-0.1,0.2-0.2c0,0,0,0,0.1,0c0,0,0.1-0.1,0.1-0.2v10.7c0,0.6,0.4,1,1,1  H77c0.6,0,1-0.4,1-1V74.3l0.9,0.4c0,0,0,0,0,0c0.1,0.1,0.3,0.1,0.4,0.1c0,0,0,0,0,0l0,0l0,0c0,0,0,0,0,0c0.1,0,0.2,0,0.3-0.1  c0,0,0.1,0,0.1,0c0.1,0,0.2-0.1,0.2-0.2c0,0,0,0,0.1,0c0.1-0.1,0.1-0.2,0.2-0.3c0,0,0,0,0,0c0-0.1,0-0.1,0.1-0.2c0-0.1,0-0.1,0-0.2  c0,0,0,0,0,0V70l6.9,3.4c0,0,0,0,0,0c0.1,0.1,0.3,0.1,0.4,0.1c0,0,0,0,0,0c0,0,0,0,0,0l0,0c0,0,0,0,0,0c0.1,0,0.2,0,0.3-0.1  c0,0,0.1,0,0.1,0c0.1,0,0.2-0.1,0.2-0.2c0,0,0,0,0.1,0c0.1-0.1,0.1-0.2,0.2-0.3c0,0,0,0,0,0c0-0.1,0-0.1,0.1-0.2c0-0.1,0-0.1,0-0.2  c0,0,0,0,0,0V34.8C88.8,34.3,88.3,33.8,87.8,33.8z M74.3,35.8L50,60.1L25.7,35.8H74.3z M26.2,85.4H24V73.6c0-0.1,0-0.2-0.1-0.3  l2.2-1.1V85.4z M76,73.6v11.8h-2.2V72.2l2.2,1.1C76,73.4,76,73.5,76,73.6z M86.8,71l-6.4-3.1v-7.4c0-0.6-0.4-1-1-1s-1,0.4-1,1v11.8  L72,69.1V53.9c0-0.6-0.4-1-1-1s-1,0.4-1,1v19.6l-6.4-3.1v-7.4c0-0.6-0.4-1-1-1s-1,0.4-1,1v11.8l-5.9-2.9l3-2.7  c0.4-0.4,0.4-1,0.1-1.4c-0.4-0.4-1-0.4-1.4-0.1l-7.7,7.1l-7-7c-0.4-0.4-1-0.4-1.4,0s-0.4,1,0,1.4l2.9,2.9l-5.7,2.8V62.9  c0-0.6-0.4-1-1-1s-1,0.4-1,1v7.4L30,73.5V53.9c0-0.6-0.4-1-1-1s-1,0.4-1,1v15.2l-6.4,3.1V60.4c0-0.6-0.4-1-1-1s-1,0.4-1,1v7.4  L13.3,71V35.8h9.6l26.4,26.4c0.2,0.2,0.5,0.3,0.7,0.3s0.5-0.1,0.7-0.3l26.4-26.4h9.6V71z"/><text x="0" y="115" fill="#000000" font-size="5px" font-weight="bold" font-family="'Helvetica Neue', Helvetica, Arial-Unicode, Arial, Sans-serif">Created by André Luiz Gollo</text><text x="0" y="120" fill="#000000" font-size="5px" font-weight="bold" font-family="'Helvetica Neue', Helvetica, Arial-Unicode, Arial, Sans-serif">from the Noun Project</text></svg>