<svg xmlns="http://www.w3.org/2000/svg" xmlns:xlink="http://www.w3.org/1999/xlink" version="1.1" x="0px" y="0px" viewBox="0 0 100 125" enable-background="new 0 0 100 100" xml:space="preserve"><path fill="#000000" d="M29.1,36L34,75.1V85c0,0.6,0.4,1,1,1h30c0.6,0,1-0.4,1-1v-9.9L70.9,36  C76.5,35.5,81,30.8,81,25c0-6.1-4.9-11-11-11c-2.4,0-4.7,0.8-6.6,2.2C60.4,11.7,55.4,9,50,9s-10.4,2.7-13.4,7.2  C34.7,14.8,32.4,14,30,14c-6.1,0-11,4.9-11,11C19,30.8,23.5,35.5,29.1,36z M49,84H36v-8h13V84z M54,84h-3v-8h3V84z M64,84h-8v-8h8  V84z M30,16c2.3,0,4.5,0.9,6.2,2.5c0.2,0.2,0.5,0.3,0.8,0.3c0.3,0,0.6-0.2,0.7-0.5C40.2,13.8,44.9,11,50,11s9.8,2.8,12.3,7.2  c0.1,0.3,0.4,0.5,0.7,0.5c0.3,0,0.6,0,0.8-0.3c1.7-1.6,3.9-2.5,6.2-2.5c5,0,9,4,9,9s-4,9-9,9c-2.3,0-4.5-0.9-6.2-2.5  c-0.4-0.4-1-0.4-1.4,0c-0.4,0.4-0.4,1,0,1.4c1.8,1.7,4,2.7,6.4,3L64.1,74H35.9l-4.8-38.1c2.4-0.2,4.7-1.3,6.4-3c0.4-0.4,0.4-1,0-1.4  c-0.4-0.4-1-0.4-1.4,0C34.5,33.1,32.3,34,30,34c-5,0-9-4-9-9S25,16,30,16z"/><path fill="#000000" d="M45,71c0.1,0,0.1,0,0.2,0c0.5-0.1,0.9-0.6,0.8-1.2l-5-30c-0.1-0.5-0.6-0.9-1.2-0.8  c-0.5,0.1-0.9,0.6-0.8,1.2l5,30C44.1,70.7,44.5,71,45,71z"/><path fill="#000000" d="M54.8,71c0.1,0,0.1,0,0.2,0c0.5,0,0.9-0.3,1-0.8l5-30c0.1-0.5-0.3-1.1-0.8-1.2  c-0.5-0.1-1.1,0.3-1.2,0.8l-5,30C53.9,70.4,54.3,70.9,54.8,71z"/><text x="0" y="115" fill="#000000" font-size="5px" font-weight="bold" font-family="'Helvetica Neue', Helvetica, Arial-Unicode, Arial, Sans-serif">Created by André Luiz Gollo</text><text x="0" y="120" fill="#000000" font-size="5px" font-weight="bold" font-family="'Helvetica Neue', Helvetica, Arial-Unicode, Arial, Sans-serif">from the Noun Project</text></svg>