<svg xmlns="http://www.w3.org/2000/svg" xmlns:xlink="http://www.w3.org/1999/xlink" version="1.1" x="0px" y="0px" viewBox="0 0 100 125" enable-background="new 0 0 100 100" xml:space="preserve"><g><g><path d="M95.039,46.868h-7.123c-0.73-17.417-13.695-31.826-30.402-34.878c0.008-0.129,0.021-0.257,0.021-0.388    c0-3.698-3.011-6.707-6.707-6.707c-3.698,0-6.708,3.009-6.708,6.707c0,0.143,0.013,0.282,0.022,0.422    C27.53,15.152,14.663,29.519,13.932,46.869h-8.53v4.045H25.23l-7.674,5.593l-0.988-1.142l-5.387,4.66l0.116,0.136L5.039,65.58    l13.659,15.773l9.786-8.474l-0.115-0.134l1.858-1.607L28.633,69.3l5.672-4.913l21.564-4.688l25.938-4.271l-0.481-4.515H95.04    L95.039,46.868L95.039,46.868z M94.02,49.896H81.215h-0.514h-0.09h-0.422H60.051h-1.049H28.848h-0.491h-0.864h-0.865H6.419v-2.009    h7.471h15.494h0.865h0.864h27.254h0.545h0.541h28.504h6.062V49.896L94.02,49.896z M33.834,63.445l-5.867,5.082l-8.51-9.826    l8.643-6.196l31.429-0.474l0.283,1.143l-14.233,2.473l0.174,1.002l15.31-2.656l-0.487-1.977l19.811-0.3l0.308,2.862L55.68,58.697    l-21.718,4.722L33.834,63.445z M18.801,79.917L6.475,65.684l5.488-4.754l0.386-0.332l0.385-0.334l0.895-0.774l0.884-0.765    l0.208-0.182l0.015,0.018l0.334,0.388l0.334,0.386l5.864,6.771l4.07,4.701l0.333,0.385l0.334,0.385l0.926,1.07l0.115,0.131    l-2.372,2.055l-0.385,0.334L18.801,79.917z M26.775,70.907l-0.334-0.386l-0.333-0.385l-4.071-4.699L16.23,58.73l-0.335-0.387    l-0.334-0.387l-0.187-0.215l1.089-0.942l0.266,0.308l0.334,0.387l0.335,0.387l5.728,6.613l4.07,4.701l0.333,0.386l0.333,0.385    l0.926,1.069L27.7,71.977L26.775,70.907z M45.138,11.602c0-3.137,2.552-5.688,5.688-5.688c3.136,0,5.689,2.551,5.689,5.688    c0,0.07-0.009,0.138-0.013,0.208c-0.448-0.07-0.903-0.122-1.356-0.175c0-0.011,0.002-0.021,0.002-0.033    c0-2.384-1.938-4.324-4.322-4.324c-2.384,0-4.324,1.94-4.324,4.324c0,0.02,0.005,0.038,0.006,0.058    c-0.455,0.055-0.909,0.113-1.358,0.185C45.147,11.763,45.138,11.683,45.138,11.602z M54.123,11.531    c-1.057-0.092-2.122-0.148-3.2-0.148c-1.145,0-2.276,0.06-3.396,0.164c0.03-1.797,1.496-3.25,3.3-3.25    C52.623,8.296,54.084,9.741,54.123,11.531z M44.778,12.944c0.167-0.029,0.334-0.062,0.503-0.089    c0.453-0.073,0.911-0.133,1.37-0.188c0.17-0.021,0.339-0.046,0.51-0.064s0.344-0.032,0.517-0.047    c1.07-0.098,2.151-0.154,3.245-0.154c1.029,0,2.046,0.053,3.056,0.14c0.17,0.015,0.347,0.022,0.519,0.04    c0.172,0.017,0.34,0.043,0.512,0.063c0.459,0.053,0.918,0.108,1.373,0.178c0.168,0.026,0.334,0.061,0.502,0.089    c0.168,0.029,0.334,0.058,0.502,0.089c16.21,2.986,28.786,16.966,29.515,33.867H66.67c-2.74-0.13-5.336-0.311-7.789-0.537    c-0.186-0.018-0.377-0.033-0.561-0.05c-1.109-0.107-2.189-0.223-3.242-0.347c-1.211-0.143-2.391-0.295-3.528-0.459    c-24.016-3.458-31.729-11.34-32.971-12.802c4.943-10.047,14.431-17.502,25.698-19.641C44.443,13.002,44.611,12.973,44.778,12.944z    "/></g></g></svg>