<?xml version="1.0" encoding="utf-8"?>
<!-- Generator: Adobe Illustrator 19.1.0, SVG Export Plug-In . SVG Version: 6.00 Build 0)  -->
<svg version="1.1" id="Layer_1" xmlns="http://www.w3.org/2000/svg" xmlns:xlink="http://www.w3.org/1999/xlink" x="0px" y="0px" 
	 viewBox="-439 188 100 125"  style="enable-background:new -439 188 100 125;" xml:space="preserve">
<path d="M-1249.1,587.7l66.5-19.9c16.5-4.5,32.1,2,36.9,18.8l1.1,4.3l-4.3,1.4l-37.5,12.2l36.7,8.5l31.8-24.7
	c13.1-10.8,30.1-10.8,41.2,3.1l3.1,3.7l-3.7,3.1l-71,55.4h-118.2l-6.8,18.2l-45.2-16.8l30.4-82.1L-1249.1,587.7L-1249.1,587.7z
	 M-1030.6,549.9h-283v-9.7h18.8c3.7-29.8,18.2-56.5,39.2-75.9c16.8-15.3,37.5-25.9,60.8-30.1c-0.3-2-0.9-3.7-0.9-5.7
	c0-6.5,2.6-12.2,6.8-16.8c4.3-4.3,10.2-6.8,16.8-6.8c6.5,0,12.2,2.6,16.8,6.8c4.3,4.3,6.8,10.2,6.8,16.8c0,2-0.3,3.7-0.9,5.7
	c23,4.3,44,14.8,60.8,30.1c21.3,19.6,35.5,45.7,39.2,75.9h18.8L-1030.6,549.9L-1030.6,549.9z M-1285.7,540.8h226.7
	c-3.7-27-17-51.1-36.4-69c-20.2-18.8-47.5-29.8-77-29.8c-29.8,0-56.8,11.4-77,29.8C-1268.4,489.1-1281.7,513.5-1285.7,540.8
	L-1285.7,540.8z M-1185.7,433.1c4.5-0.3,8.8-0.9,13.4-0.9c4.5,0,9.1,0.3,13.4,0.9c0-0.3,0-0.3,0-0.9c0.3-1.1,0.3-2.3,0.3-3.7
	c0-3.7-1.4-7.4-4.3-9.9c-2.6-2.6-6-4.3-9.9-4.3c-3.9,0-7.4,1.4-9.9,4.3c-2.6,2.6-4.3,6-4.3,9.9c0,1.4,0,2.6,0.3,3.7
	C-1185.7,432.8-1185.7,433.1-1185.7,433.1L-1185.7,433.1z M-1245.7,596.5l-17.9,47.7h111.9l64.2-50.3c-8-6-17-3.4-24.7,2l-34.7,27.8
	l-55.7-13.1l-21,6.8l-3.4-8.8l70.7-23.3c-4.5-8.8-14.5-10.8-23.6-8L-1245.7,596.5L-1245.7,596.5z M-1255,595.4l-27.6-10.2
	l-24.2,64.5l27.6,10.2L-1255,595.4z"/>
<path d="M-415.5,264.3l22.8-6.8c5.6-1.6,11,0.7,12.7,6.4l0.4,1.4l-1.4,0.5l-12.9,4.2l12.6,2.9l10.9-8.5c4.5-3.7,10.4-3.7,14.2,1.1
	l1.1,1.3l-1.3,1.1l-24.4,19h-40.7l-2.4,6.3l-15.5-5.8l10.5-28.2L-415.5,264.3L-415.5,264.3z M-340.4,251.3h-97.3V248h6.4
	c1.3-10.2,6.3-19.4,13.5-26.1c5.8-5.3,12.9-8.9,20.9-10.4c-0.1-0.7-0.3-1.3-0.3-2c0-2.2,0.9-4.2,2.4-5.8c1.4-1.4,3.5-2.4,5.8-2.4
	s4.2,0.9,5.8,2.4c1.4,1.4,2.4,3.5,2.4,5.8c0,0.7-0.1,1.3-0.3,2c7.9,1.4,15.1,5.1,20.9,10.4c7.4,6.7,12.2,15.8,13.5,26.1h6.4v3.3
	H-340.4z M-428.1,248.2h78c-1.3-9.3-5.9-17.6-12.5-23.8c-7-6.4-16.3-10.2-26.5-10.2c-10.2,0-19.6,3.9-26.5,10.2
	C-422.2,230.4-426.8,238.8-428.1,248.2L-428.1,248.2z M-393.7,211.2c1.6-0.1,3-0.3,4.6-0.3s3.2,0.1,4.6,0.3c0-0.1,0-0.1,0-0.3
	c0.1-0.4,0.1-0.8,0.1-1.3c0-1.3-0.5-2.5-1.4-3.4s-2.1-1.4-3.4-1.4c-1.3,0-2.5,0.5-3.4,1.4s-1.4,2.1-1.4,3.4c0,0.5,0,0.9,0.1,1.3
	C-393.7,211-393.7,211.2-393.7,211.2L-393.7,211.2z M-414.3,267.3l-6.2,16.4h38.5l22.1-17.3c-2.8-2.1-5.9-1.2-8.5,0.7l-11.9,9.6
	l-19.2-4.5l-7.2,2.4l-1.2-3l24.3-8c-1.6-3-5-3.7-8.1-2.8L-414.3,267.3L-414.3,267.3z M-417.6,266.9l-9.5-3.5l-8.3,22.2l9.5,3.5
	L-417.6,266.9z"/>
</svg>
